<svg xmlns:xlink="http://www.w3.org/1999/xlink" preserveAspectRatio="xMidYMid meet" data-bbox="36.406 20.65 127.188 159.527" xmlns="http://www.w3.org/2000/svg" width="200" height="200" viewBox="36.406 20.65 127.188 159.527" data-type="color" role="presentation" aria-hidden="true" aria-labelledby="svgcid-96cs8un6fcbf"><title id="svgcid-96cs8un6fcbf"></title>
    <g>
        <path fill="#F4AA00" d="M163.594 180.177c-.086-28.58-28.523-51.727-63.594-51.727s-63.508 23.147-63.594 51.727h127.188z" data-color="1"></path>
        <path fill="#FFF8E4" d="M142.063 168.629c-6.378 0-11.548 5.17-11.548 11.548h23.096c0-6.378-5.17-11.548-11.548-11.548z" data-color="2"></path>
        <path fill="#FFF8E4" d="M113.454 172.08c0-6.378-5.17-11.548-11.548-11.548s-11.548 5.17-11.548 11.548c0 3.156 1.269 6.013 3.32 8.097h16.456a11.507 11.507 0 003.32-8.097z" data-color="2"></path>
        <path d="M116.435 141.785c0 6.378-5.17 11.548-11.548 11.548s-11.548-5.17-11.548-11.548 5.17-11.548 11.548-11.548 11.548 5.17 11.548 11.548z" fill="#FFF8E4" data-color="2"></path>
        <path d="M81.427 154.314c0 6.378-5.17 11.548-11.548 11.548s-11.548-5.17-11.548-11.548 5.17-11.548 11.548-11.548 11.548 5.17 11.548 11.548z" fill="#FFF8E4" data-color="2"></path>
        <path fill="#FFF8E4" d="M141.314 152.351c3.511 0 6.65-1.572 8.768-4.045-5.147-5.326-11.543-9.808-18.834-13.153a11.486 11.486 0 00-1.482 5.65c0 6.378 5.17 11.548 11.548 11.548z" data-color="2"></path>
        <path fill="#754938" d="M120.259 131.184a74.53 74.53 0 00-7.968-1.737v-13.289H87.708v13.289a75.022 75.022 0 00-7.968 1.737c0 .035-.005.068-.005.103 0 11.192 9.073 20.265 20.265 20.265s20.265-9.073 20.265-20.265c0-.034-.005-.068-.006-.103z" data-color="3"></path>
        <path fill="#FFF8E4" d="M47.05 159.086a11.477 11.477 0 00-1.499-5.735c-3.816 5.155-6.553 10.899-7.975 17.029 5.362-.973 9.444-5.645 9.474-11.294z" data-color="2"></path>
        <path opacity=".12" d="M87.708 119.662h24.582l.002 5.43s-4.666 1.838-13.709-.08-10.875-4.091-10.875-4.091v-1.259z"></path>
        <path fill="#754938" d="M134.74 91.096H65.325a4.908 4.908 0 110-9.816h69.416a4.909 4.909 0 01-.001 9.816z" data-color="3"></path>
        <path opacity=".06" fill="#754938" d="M134.74 91.096H65.325a4.908 4.908 0 110-9.816h69.416a4.909 4.909 0 01-.001 9.816z" data-color="3"></path>
        <g opacity=".06">
            <path d="M134.74 91.096H65.325a4.908 4.908 0 110-9.816h69.416a4.909 4.909 0 01-.001 9.816z"></path>
            <path opacity=".06" d="M134.74 91.096H65.325a4.908 4.908 0 110-9.816h69.416a4.909 4.909 0 01-.001 9.816z"></path>
        </g>
        <path d="M133.898 88.289c0 18.713-15.17 33.882-33.882 33.882-18.713 0-33.882-15.17-33.882-33.882 0-18.713 15.17-33.882 33.882-33.882 18.713 0 33.882 15.17 33.882 33.882z" fill="#754938" data-color="3"></path>
        <path opacity=".12" d="M100.033 86.381a3.807 3.807 0 013.7 2.932c.067-.284.112-.575.112-.88a3.812 3.812 0 00-7.624 0c0 .304.045.596.112.88a3.806 3.806 0 013.7-2.932z"></path>
        <path fill="#1A1A1A" d="M86.615 97.39c0 .044-.003.087-.003.132 0 7.412 6.009 13.421 13.421 13.421 7.412 0 13.421-6.009 13.421-13.421l-.003-.132H86.615z" data-color="4"></path>
        <path fill="#FFFFFF" d="M86.615 97.39c0 .044-.003.087-.003.132 0 1.031.127 2.031.348 2.996h26.147c.22-.965.348-1.965.348-2.996l-.003-.132H86.615z" data-color="5"></path>
        <path fill="#C1272D" d="M93.816 109.426c1.852.964 3.952 1.517 6.184 1.517s4.332-.553 6.184-1.517a8.445 8.445 0 00-12.368 0z" data-color="6"></path>
        <path d="M121.151 79.455a1.613 1.613 0 11-3.226 0 1.613 1.613 0 013.226 0z" fill="#1A1A1A" data-color="4"></path>
        <path d="M82.075 79.455a1.613 1.613 0 11-3.226 0 1.613 1.613 0 013.226 0z" fill="#1A1A1A" data-color="4"></path>
        <path fill="#1A1A1A" d="M142.232 42.064c0-11.826-9.587-21.414-21.414-21.414s-21.414 9.587-21.414 21.414c0 4.775 1.582 9.169 4.224 12.73a34.16 34.16 0 00-3.596-.205c-11.845 0-22.263 6.082-28.32 15.289h56.641a34.125 34.125 0 00-5.574-6.5c10.906-.99 19.453-10.149 19.453-21.314z" data-color="4"></path>
        <path fill="#C3A3E5" d="M122.88 64.198l-20.076-9.111a.75.75 0 01-.373-.994l.007-.015a.75.75 0 01.994-.373l20.076 9.111a.75.75 0 01.373.994l-.007.015a.751.751 0 01-.994.373z" data-color="7"></path>
    </g>
</svg>