<svg xmlns:xlink="http://www.w3.org/1999/xlink" preserveAspectRatio="xMidYMid meet" data-bbox="41 66.001 118 68.001" viewBox="41 66.001 118 68.001" height="200" width="200" xmlns="http://www.w3.org/2000/svg" data-type="color" role="presentation" aria-hidden="true" aria-labelledby="svgcid--i0lqnf-8j3e5r"><title id="svgcid--i0lqnf-8j3e5r"></title>
    <g>
        <path d="M41.018 105.477c-.089.582.182 1.463.314 1.704 1.905 3.464 5.256 6.24 8.213 8.689l.265.22a75.43 75.43 0 0 0 10.137 7.1c.55.32 1.137.65 1.844 1.037 3.294 2.016 6.399 3.514 9.489 4.581 1.711.591 3.615 1.158 5.822 1.735 1.726.493 3.511.927 5.286 1.285.487.113.997.23 1.506.346l.132.03c3.494.8 7.55 1.608 11.76 1.769.663.026 1.33.035 1.999.026 3.144-.044 6.502-.492 10.566-1.412a76.261 76.261 0 0 0 2.321-.354c9.758-1.658 18.776-5.678 26.311-9.391l.782-.385c3.847-1.893 7.825-3.851 11.484-6.248 3.227-2.113 6.794-4.747 8.856-8.284.914-.828 1.145-2.064.615-3.342-5.587-13.458-16.301-24.122-30.982-30.839-8.49-3.884-16.072-6.256-23.18-7.25-9.067-1.269-21.603-.013-29.161 2.92-6.948 2.695-13.777 7.206-20.877 13.79-2.047 1.898-3.704 3.566-5.139 5.538-1.416 1.947-2.631 4.008-3.805 6l-.434.733c-.548.925-1.114 1.882-1.645 2.846-.166.302-.322.573-.471.83-.405.703-.788 1.368-1.169 2.311-.615 1.527-.732 2.405-.839 4.015z" fill="#000010" data-color="1"></path>
        <path d="M143.37 112.312c-1.776-2.192-1.779-5.513-1.013-8.093.285-.958 1.023-2.319 1.968-3.134a112.42 112.42 0 0 0-1.145-.752c-3.923-2.532-7.915-4.965-12.027-7.185-.857-.463-1.724-.916-2.6-1.361 2.518 7.277 1.896 15.469-1.782 22.3-3.569 6.628-10.114 11.407-17.386 13.304-8.046 2.099-16.222-.201-23.38-4.03-6.811-3.643-11.701-9.547-13.389-17.101-.794-3.555-.92-7.272-.479-10.883.232-1.903.536-4.016 1.118-6.004a74.08 74.08 0 0 0-8.857 3.775c-3.651 1.85-7.13 4.006-10.442 6.403a80.227 80.227 0 0 0-4.746 3.711c-1.443 1.22-2.805 2.494-4.481 3.381 2.741 2.716 5.582 5.234 8.743 7.499 1.001.717 2 1.44 3.002 2.16a76.835 76.835 0 0 0 8.057 4.676c14.778 7.409 32.115 9.718 48.321 6.379 5.999-1.236 11.657-3.265 17.181-5.698a79.141 79.141 0 0 0 5.023-2.509 135.044 135.044 0 0 0 9.591-5.765 4.143 4.143 0 0 1-1.277-1.073z" fill="#FFFFFF" data-color="2"></path>
        <path d="M143.969 106.289c.136-.929.408-1.927.89-2.739.392-.658.857-.95 1.466-1.121.793.537 1.59 1.074 2.393 1.599 1.082.99 2.141 2.002 3.274 2.934.005.109.009.22.01.333.005.323-.034.635-.091.943a130.494 130.494 0 0 1-4.956 3.589c-.652.132-1.305.005-1.896-.607-1.198-1.239-1.325-3.324-1.09-4.931z" fill="#FF3998" data-color="3"></path>
        <path d="M136.276 90.16c-6.197-3.293-12.812-5.794-19.663-7.341a75.238 75.238 0 0 0-4.997-1.458c-8.2-2.079-16.758-2.78-25.134-1.374-8.017 1.345-15.611 4.621-22.513 8.825-4.162 2.535-8.145 5.385-11.976 8.388a36.71 36.71 0 0 0-1.344 1.113 76.158 76.158 0 0 0-2.347 2.014c-.253.226-.508.453-.762.683.494-.818.982-1.64 1.497-2.445a61.324 61.324 0 0 1 3.897-5.445c1.008-1.25 2.247-2.605 3.592-3.941 2.444-2.429 5.248-4.795 7.734-6.342 7.714-4.8 16.691-8.718 25.633-10.106 7.966-1.237 17.782.485 25.393 2.61 7.1 1.982 13.132 6.187 19.269 10.061 4.177 2.637 6.864 5.712 10.523 9.035a52.26 52.26 0 0 1 2.545 2.48c.415.502.824 1.008 1.222 1.523-.917-.711-1.839-1.396-2.735-2.062a77.17 77.17 0 0 0-9.834-6.218z" fill="#FF3998" data-color="3"></path>
        <path d="M75.388 88.653c-.212.718-.427 1.437-.606 2.17a35.19 35.19 0 0 0-.892 5.568c-.299 3.767.012 7.58 1.134 11.2 2.17 6.998 7.516 11.964 14.124 14.925 6.808 3.05 14.459 3.986 21.601 1.538 6.478-2.22 12.017-7.117 14.662-13.431 2.73-6.517 2.674-14.06-.367-20.46-.015-.032-.027-.064-.04-.096a100.057 100.057 0 0 0-4.061-1.775 74.825 74.825 0 0 0-10.911-2.488 17.256 17.256 0 0 1 3.276 3.671c4.331 6.576 2.744 16.228-3.145 21.361-5.34 4.655-13.712 4.371-19.431.5-2.766-1.872-4.704-4.545-5.359-7.822-.596-2.982-.59-6.05-.046-9.037.601-3.297 2.214-6.869 4.778-9.009a78.46 78.46 0 0 0-14.717 3.185z" fill="#FFF171" data-color="4"></path>
        <path d="M106.354 121.054c6.088.864 12.261-4.06 14.49-11.072 2.229-7.012 1.858-14.763-.371-9.965s-3.53 10.15-8.546 14.394c-5.015 4.244-8.174 6.274-5.573 6.643z" fill="#FFFFFF" data-color="2"></path>
    </g>
</svg>