<svg xmlns:xlink="http://www.w3.org/1999/xlink" preserveAspectRatio="xMidYMid meet" data-bbox="58.093 32 83.814 136.001" viewBox="58.093 32 83.814 136.001" height="200" width="200" xmlns="http://www.w3.org/2000/svg" data-type="color" role="presentation" aria-hidden="true" aria-labelledby="svgcid--q3chw3-vlw0at"><title id="svgcid--q3chw3-vlw0at"></title>
    <g>
        <path d="M113.722 48.125c-7.828-6.126-19-6.644-27.107-.792-7.3 5.271-10.89 14.231-8.468 22.968 1.12 4.041 3.521 7.68 6.716 10.399 3.008 2.561 7.195 4.825 11.296 5.218 3.556.952 7.667.626 10.925-.279 5.42-1.506 9.913-5.259 12.601-10.147 5.059-9.205 2.241-20.946-5.963-27.367zm5.054 19.796a1.375 1.375 0 0 0-.025.676 17.957 17.957 0 0 1-3.451 7.885c-2.68 3.48-6.498 5.822-10.751 6.596a19.418 19.418 0 0 1-6.236.128 22.17 22.17 0 0 1-1.606-.298 149.91 149.91 0 0 0-.955-.278c-.424-.123-.861-.249-1.29-.379a5.239 5.239 0 0 0-.591-.526c-.148-.112-.298-.221-.448-.33-.265-.193-.516-.375-.748-.569a9.37 9.37 0 0 1-1.805-2.053c-1.079-1.643-1.681-3.619-1.741-5.713-.103-3.595 1.348-7.585 4.085-11.236 1.808-2.411 4.801-5.431 8.796-6.128 3.565-.622 7.55.559 10.932 3.24a23.113 23.113 0 0 1 4.426 4.667c1.292 1.801 1.739 3.174 1.408 4.318zm1.06-5.782l-.025-.034.025.034z" fill="#000010" data-color="1"></path>
        <path d="M128.944 49.935c-6.813-10.904-20.671-16.78-34.492-14.622-6.777 1.059-13.07 4.105-17.718 8.576-4.95 4.763-8.337 11.009-9.537 17.589-1.16 6.366-.078 12.648 3.131 18.167 3.079 5.298 7.721 9.819 13.072 12.731 1.304.71 2.665 1.373 3.941 1.984.139.067.158.224.156.312-.002.173-.082.299-.139.325l-.352.157-.044.381a.635.635 0 0 1-.027.148c-.139.281-.264.568-.387.857l-.043.146c-.197 1.119-.487 2.205-.793 3.355l-.172.644c-.323 1.229-.675 2.45-1.028 3.67-.217.753-.434 1.505-.645 2.259a253.362 253.362 0 0 0-1.559 5.839c-.27 1.066-.532 2.135-.784 3.205l-.033.142c-.095.405-.177.754-.316 1.024l-.146.284.128.292c.083.191.067.425-.038.559-.027.036-.109.142-.392.1-.829-.136-1.649-.411-2.518-.702-.534-.179-1.067-.358-1.6-.503a96.296 96.296 0 0 0-4.345-1.068c-.647-.144-1.309-.277-1.977-.412-1.866-.375-3.796-.762-5.518-1.429l-.72-.279-.186.746c-.107.431-.259.856-.409 1.277-.089.251-.178.501-.257.749-.18.558-.355 1.118-.53 1.678l-.467 1.482c-.312.977-.638 1.951-.964 2.924-.074.221-.145.447-.216.674-.166.531-.339 1.08-.559 1.571l-.522 1.148 1.249-.207c.858-.092 1.735.129 2.663.362.28.071.559.141.837.202 1.393.308 2.791.602 4.189.89 1.326.272 2.656.531 3.989.773l.466.083c1.102.194 2.145.377 3.09.896l-.042.111.074.225c.148.452.03.979-.107 1.589l-.095.433c-.248 1.223-.5 2.446-.761 3.667a281.987 281.987 0 0 1-1.622 7.174l-.231.966c-.457 1.913-.929 3.893-1.516 5.787-.194.627-.393 1.254-.592 1.88l-.139.446c-.109.455-.215.892-.321 1.309-.071.282-.152.563-.232.844a17.55 17.55 0 0 0-.333 1.323l-.152.741.756.067c.39.034.785.111 1.17.185l.577.106c1.065.179 2.128.364 3.19.562.521.098 1.081.176 1.655.256 1.397.195 2.84.396 3.995.921l.793.36.156-.854c.22-1.206.62-2.452 1.006-3.658.205-.64.408-1.273.585-1.896a310.043 310.043 0 0 1 1.788-6.118c.638-2.088 1.292-4.17 1.98-6.243.149-.449.294-.912.441-1.378.519-1.66 1.057-3.376 1.872-4.777l.124.019.088-.012.297.106.256-.078c2.355-.133 4.868.503 7.238 1.157 2.242.619 4.246 1.349 6.128 2.233l.667.313 2.211-5.887c.174-.462.337-.939.502-1.421.355-1.041.723-2.117 1.216-3.066l.384-.739-.806-.222c-1.124-.309-2.259-.691-3.357-1.061-1.375-.464-2.796-.943-4.246-1.297a79.64 79.64 0 0 0-4.121-.877 28.468 28.468 0 0 0-1.174-.189c-.83-.122-1.614-.237-2.341-.486l-.274-.048-.184.039c-.174-.65-.019-1.24.178-1.987l.091-.351c.26-1.031.529-2.058.806-3.084a241.305 241.305 0 0 1 1.74-6.07c.602-2.024 1.196-4.05 1.787-6.075.135-.463.263-.937.391-1.415.36-1.34.732-2.725 1.308-3.932l.278-.581c5.259.251 10.665-.816 15.03-2.981 4.297-2.131 8.221-5.669 11.347-10.231 5.984-8.73 10.377-23.079 3.063-34.784zm-9.856 25.231c-2.654 4.827-7.097 8.406-12.189 9.822-3.564.992-7.512 1.094-10.677.258-3.511-.337-7.593-2.228-10.919-5.059-3.133-2.667-5.442-6.241-6.504-10.065-2.289-8.258.935-16.988 8.213-22.242 3.692-2.666 8.079-3.988 12.497-3.988 4.853 0 9.745 1.597 13.791 4.764 8.118 6.352 10.605 17.75 5.788 26.51z" fill="#FF3998" data-color="2"></path>
        <path d="M83.681 157.816c.135-.324.211-.684.324-1.022.301.797.561 1.607.792 2.424-.375-.465-.732-.944-1.116-1.402z" fill="#000010" data-color="1"></path>
        <path d="M89.23 157.792a.565.565 0 0 1-.023-.113c-.265-2.417 1.02-4.64 3.104-5.786-.157.529-.304 1.061-.462 1.589-.812 2.713-1.675 5.411-2.517 8.116a27.64 27.64 0 0 1-.102-3.806z" fill="#000010" data-color="1"></path>
        <path d="M83.271 164.524c-.241-.028-.481-.063-.723-.089a163.255 163.255 0 0 1-3.817-.441c-.586-.076-1.256-.24-1.87-.176a1.071 1.071 0 0 0-.385-.295 2.775 2.775 0 0 1-.457-.272c-.086-.194-.168-.387-.261-.553-.232-.413-.515-.794-.779-1.187.567-.463 1.144-.917 1.8-1.293.942-.54 1.761-.857 2.277-1.805 1.048.198 2.112.339 3.103.187 1.006 1.272 1.969 2.577 2.946 3.872-.107.431-.274.848-.604 1.216-.334.371-.767.632-1.23.836z" fill="#000010" data-color="1"></path>
        <path d="M98.803 103.469c.415-1.587.861-3.226.94-4.863.534.365 1.048.761 1.643 1.028.715.321 1.499.437 2.248.653a9.845 9.845 0 0 1 2.821 1.301c.67.453 1.472 1.076 2.238 1.762l-.26.03c-.108.012-.215.026-.323.039-.433.052-.864.11-1.289.184l-.116.023c-.418.077-.828.17-1.223.292-.28.087-.553.184-.816.302a.787.787 0 0 0-.384.346c-.007.008-.014.015-.02.024-.141.201-.201.441-.312.658-1.544-.914-3.439-1.428-5.147-1.779z" fill="#000010" data-color="1"></path>
        <path d="M97.604 109.488c1.141-.164 2.332-.563 3.513-.714.538-.069 1.072-.035 1.605.026-.353 1.195-.709 2.39-1.045 3.591-.265.947-.56 1.903-.849 2.857-.969.249-1.946.49-2.985.564-.797.057-1.574-.014-2.337-.141.507-1.873 1.021-3.743 1.532-5.614l.181-.673c.129.028.254.085.385.104z" fill="#000010" data-color="1"></path>
        <path d="M99.376 120.798c-.022.113-.063.224-.083.336a.715.715 0 0 0-.006.195 48.855 48.855 0 0 0-2.217-.38c-.91-.134-1.879-.32-2.83-.345.009-.029.013-.061.022-.09.569.018 1.138.04 1.708.079 1.097.074 2.252.12 3.406.205z" fill="#000010" data-color="1"></path>
        <path d="M133.232 56.576c-.262-.985-.457-1.991-.827-2.939a185.491 185.491 0 0 1 3.096 3.974 27.622 27.622 0 0 0 1.718 2.031c.165.286.328.581.492.886.024.045.058.083.088.124.119.692.361 1.351.558 2.053.133.474.187.963.284 1.443a25.844 25.844 0 0 1-.918-2.147c-.845-2.199-1.867-4.975-4.491-5.425z" fill="#000010" data-color="1"></path>
        <path d="M113.947 55.96c.454-.211.909-.42 1.362-.634a5.501 5.501 0 0 0 1.582-.444 18.783 18.783 0 0 1 1.701 3.191c-.321.416-.643.838-.968 1.238-1.049-1.178-2.181-2.28-3.415-3.194-.083-.06-.18-.098-.262-.157z" fill="#00CBFF" data-color="3"></path>
        <path d="M93.471 50.818c.761.495 1.384 1.192 2.016 1.834.545.553 1.094 1.113 1.657 1.659-.848.476-1.634 1.057-2.39 1.677-.153-.099-.281-.211-.441-.307-2.654-1.605-4.676-1.475-7.578-.595a187.375 187.375 0 0 0-4.967 1.589 21.138 21.138 0 0 1 8.296-8.559c.328.642.731 1.24 1.334 1.655.64.441 1.423.625 2.073 1.047z" fill="#00CBFF" data-color="3"></path>
        <path d="M86.697 76.091c.43 1.778 1.137 3.501 2.231 4.973a20.038 20.038 0 0 1-3.534-2.686c-.884-.845-1.653-1.798-2.356-2.797.866.213 1.751.378 2.659.469.331.033.667.018 1 .041z" fill="#00CBFF" data-color="3"></path>
        <path d="M80.928 66.475c-.452-1.499-1.054-2.479.678-3.883 1.202-.975 3.4-1.74 4.877-2.052 1.314-.277 2.731-.231 3.974.256-.173.254-.381.491-.543.748-1.75 2.762-3.059 5.968-3.47 9.255-1.35-.321-2.766-.778-3.878-1.48-1.066-.673-1.298-1.715-1.638-2.844z" fill="#FFF171" data-color="4"></path>
        <path d="M108.268 53.212a15.552 15.552 0 0 0-4.702-.621c-1.373-1.029-2.491-2.343-3.947-3.275-.665-.425-1.505-.704-2.051-1.293-.818-.88-.735-1.617-.265-2.179 5.15-.557 10.45.896 14.706 3.976-.425.534-.999.89-1.628 1.37-.797.606-1.445 1.323-2.113 2.022z" fill="#FFF171" data-color="4"></path>
        <path d="M141.409 64.065l-.034-.164c-.294-1.45-.658-3.244-1.761-4.527a29.538 29.538 0 0 0-2.188-3.492c-1.304-1.785-2.823-3.856-4.362-5.846a73.625 73.625 0 0 0-4.659-5.468l-.061-.064c-.627-.665-1.276-1.353-2.029-1.96-4.762-4.706-10.862-8.013-17.646-9.565-6.739-1.542-13.72-1.259-20.186.82-6.824 2.193-13.009 6.652-17.415 12.554-4.433 5.939-6.9 13.13-6.947 20.25-.043 6.37 2.244 12.723 6.612 18.373 4.097 5.299 9.136 9.224 14.302 11.164-.454 1.101-.815 2.228-1.167 3.328-.104.325-.208.649-.314.973-.535 1.632-1.037 3.298-1.523 4.909l-.205.681a210.145 210.145 0 0 0-1.678 5.82c-.245.901-.487 1.823-.724 2.747-.479-.142-.958-.265-1.429-.386a69.451 69.451 0 0 1-.665-.173c-1.417-.379-2.843-.68-4.172-.948-.433-.087-.87-.178-1.31-.27-2.489-.518-5.063-1.053-7.602-1.129a1.998 1.998 0 0 0-1.492.608 1.94 1.94 0 0 0-.53 1.072c-.343.687-.562 1.431-.757 2.096-.075.256-.15.51-.23.754-.3.916-.611 1.864-.904 2.818-.123.398-.244.797-.366 1.195-.215.705-.43 1.41-.651 2.113-.061.195-.127.39-.192.585a17.87 17.87 0 0 0-.389 1.26c-.269.26-.469.588-.569.947a2.014 2.014 0 0 0 .205 1.558c.936 1.623 1.967 3.33 3.064 5.076.161.257.323.524.487.794.816 1.346 1.741 2.87 3.072 3.904.208.161.452.26.709.292.884.443 1.916.653 2.763.826.235.048.455.092.648.139 1.159.276 2.343.509 3.518.691l.073.011.054.008c-.248 1.171-.47 2.193-.687 3.152a175.923 175.923 0 0 1-.809 3.381 160.958 160.958 0 0 0-.898 3.777c-.29 1.311-.542 2.385-.794 3.379-.068.266-.144.533-.22.8-.12.421-.244.853-.341 1.3a1.9 1.9 0 0 0-.694 1.649c.022.266.096.519.219.753.264.848.791 1.602 1.26 2.272.11.157.218.311.318.46a76.822 76.822 0 0 0 2.048 2.917c.719.976 1.782 2.42 3.136 3.136l.051.051c.23.219.489.384.764.509.67.305 1.433.378 2.083.439.223.021.434.041.603.068.822.13 1.658.285 2.467.435.393.073.787.146 1.182.217 1.467.263 2.793.44 4.052.54l.162.014c.362.031.825.07 1.303.046a2.265 2.265 0 0 0 1.585.207 1.854 1.854 0 0 0 1.339-1.229c1.419-4.23 2.712-8.456 3.898-12.393.681-2.26 1.261-4.297 1.775-6.228.107-.402.229-.817.358-1.255.283-.963.573-1.948.752-2.951.151.027.301.052.449.077.385.065.748.126 1.065.204.785.194 1.585.416 2.358.63.459.127.918.255 1.378.377.377.101.786.225 1.218.357 1.816.553 4.042 1.23 6.028.741.286.105.589.14.882.1a1.762 1.762 0 0 0 1.2-.745c.58-.818.804-1.762 1.002-2.595.081-.342.158-.664.253-.96.319-.994.658-2.017 1.038-3.126l.092-.269c.581-1.696 1.235-3.602 1.253-5.538.392-.62.445-1.421.098-2.077-.454-.856-1.065-1.618-1.657-2.354-.255-.318-.497-.619-.718-.918-.155-.209-.31-.425-.468-.645-.57-.792-1.208-1.678-1.957-2.427a2.074 2.074 0 0 0-1.067-1.39c-2.416-1.249-5.316-1.91-7.876-2.493l-.081-.018c.56-1.613 1.003-3.271 1.435-4.885.223-.835.454-1.699.695-2.529.389-1.343.766-2.71 1.131-4.033l.096-.347c.064-.232.132-.465.201-.697.134-.456.27-.922.382-1.401.868.02 1.721-.102 2.502-.214l.197-.028a49.479 49.479 0 0 0 4.035-.75 47.533 47.533 0 0 0 7.296-2.28c4.827-1.963 8.689-4.409 11.478-7.272 2.99-3.069 5.453-7.13 7.321-12.071 1.786-4.724 2.779-9.352 2.952-13.758.091-2.315-.068-4.497-.473-6.486zm-46.371 74.477l-.005-.007.005.007.002.003-.002-.003zm29.443-46.564c-.184.13-.381.226-.584.3-.954.22-1.992.078-3.025-.017a33.81 33.81 0 0 0 3.632-3.551c.457.767.809 1.571.714 2.442a2.33 2.33 0 0 1-.737.826zm.84-7.637c-2.834 4.135-6.557 7.759-11.089 10.007-4.843 2.402-10.723 3.313-16.096 2.813-.607-.056-.754.81-.152.934l.629.13c-.81 1.697-1.215 3.659-1.737 5.448-.591 2.025-1.185 4.05-1.787 6.072a243.88 243.88 0 0 0-1.745 6.087c-.278 1.029-.548 2.06-.809 3.094-.233.924-.518 1.736-.266 2.677.109.407.526.552.893.473 1.151.394 2.423.477 3.61.7 1.368.256 2.732.539 4.084.869 2.579.63 5.038 1.654 7.584 2.353-.744 1.434-1.193 3.078-1.75 4.56l-1.952 5.199c-2.007-.943-4.091-1.681-6.236-2.273-2.384-.658-4.969-1.312-7.455-1.181a.907.907 0 0 0-.219.04.74.74 0 0 0-.424-.071.657.657 0 0 0-.656.319c-1.109 1.882-1.699 4.224-2.387 6.294a273.771 273.771 0 0 0-1.985 6.259 311.395 311.395 0 0 0-1.793 6.131c-.515 1.821-1.261 3.729-1.606 5.616-1.737-.788-4.005-.888-5.806-1.225a183.238 183.238 0 0 0-3.202-.565c-.58-.098-1.195-.245-1.799-.298.084-.412.195-.831.321-1.272.083-.289.165-.576.237-.864.107-.42.214-.86.323-1.319.241-.761.484-1.522.72-2.284.69-2.231 1.212-4.525 1.758-6.795.575-2.39 1.114-4.787 1.626-7.191.261-1.223.514-2.448.762-3.673.164-.811.432-1.605.182-2.366.087-.232.01-.515-.27-.674-1.203-.685-2.496-.851-3.842-1.096a173.001 173.001 0 0 1-3.974-.771c-1.394-.287-2.788-.58-4.179-.887-1.218-.269-2.463-.712-3.721-.577-.012.001-.024.005-.036.007.334-.74.547-1.552.8-2.307.327-.976.653-1.953.967-2.933.337-1.052.658-2.108.996-3.159.218-.678.505-1.367.678-2.07 2.396.929 5.105 1.317 7.595 1.871 1.446.322 2.884.672 4.313 1.06 1.386.377 2.772.988 4.187 1.22 1.062.174 1.494-.833 1.162-1.593.196-.38.289-.827.405-1.319.252-1.067.512-2.132.782-3.195a249.643 249.643 0 0 1 1.555-5.823c.553-1.981 1.152-3.95 1.676-5.939.357-1.354.736-2.691.976-4.054.118-.278.239-.555.372-.825.057-.115.076-.24.09-.365.658-.293.78-1.488-.001-1.861-1.311-.628-2.633-1.273-3.909-1.968-5.288-2.879-9.794-7.289-12.81-12.478-3.157-5.43-4.173-11.543-3.05-17.708 1.191-6.534 4.551-12.616 9.341-17.225 4.725-4.546 10.884-7.383 17.351-8.394 12.779-1.997 26.83 3.14 33.81 14.311 6.587 10.539 3.66 24.273-3.042 34.054z" fill="#000010" data-color="1"></path>
        <path d="M99.919 38.674c-2.819-1.723-17.468.656-20.267 8.545-1.676 4.724 8.545-4.677 13.224-4.931 5.093-.277 10.054-1.773 7.043-3.614z" fill="#FFFFFF" data-color="5"></path>
        <path d="M100.642 89.313c1.989 1.359 12.75.165 15.081-5.479 1.396-3.38-6.399 3.092-9.817 3.106-3.719.014-7.389.922-5.264 2.373z" fill="#FFFFFF" data-color="5"></path>
        <path d="M129.585 90.743c-.17-2.013-.804-4.043-1.238-6.012-.076-.342-.143-.699-.212-1.048.382-.621.796-1.224 1.142-1.865 1.121-2.08 2.039-4.302 2.824-6.571 1.391.326 2.822.484 4.278.422a19.412 19.412 0 0 0 2.137-.232c-1.338 7.604-4.721 15.353-10.815 20.191-.102.081-.215.147-.318.227 1.5-1.217 2.372-3.102 2.202-5.112z" fill="#00CBFF" data-color="3"></path>
        <path d="M106.454 101.588a9.818 9.818 0 0 0-2.821-1.301c-.749-.215-1.533-.332-2.248-.653-.595-.267-1.109-.663-1.643-1.028.002-.05.02-.1.021-.149.474.091.95.173 1.426.239.493.068.985.118 1.477.14 2.083.09 4.075-.164 6.017-.565 5.047 2.743 11.772 1.167 16.698-1.34a.698.698 0 0 0 .113-.025c.584-.192 1.102-.493 1.582-.834-3.073 2.309-6.627 4.059-10.238 5.33a43.796 43.796 0 0 1-5.961 1.643c-.403.081-.823.14-1.249.194l-.235.031-.663.077-.04.005a21.364 21.364 0 0 0-2.236-1.764z" fill="#00CBFF" data-color="3"></path>
        <path d="M125.219 91.151a2.338 2.338 0 0 1-.738.827c-.184.13-.381.226-.584.3-.968.223-2.022.074-3.07-.021 1.3-1.095 2.548-2.258 3.677-3.548.457.767.81 1.571.715 2.442z" fill="#FFF171" data-color="4"></path>
        <path d="M137.605 68.917a2.795 2.795 0 0 0-.635-.119c-1.238-.064-2.291.463-3.374.95.354-1.847.615-3.705.662-5.565.067-2.62-.369-5.147-1.025-7.608 2.624.45 3.646 3.226 4.49 5.427.287.748.581 1.461.918 2.147.11.546.256 1.084.322 1.639.118.995.151 1.998.157 3.001-.39.049-.847.046-1.169.083l-.346.045z" fill="#FFF171" data-color="4"></path>
        <path d="M100.828 115.248c-.558 1.839-1.086 3.687-1.452 5.55-1.154-.085-2.31-.131-3.406-.205-.57-.038-1.14-.061-1.708-.079.116-.412.197-.841.303-1.263a203.6 203.6 0 0 1 .809-3.094l.133-.486c.763.127 1.54.199 2.337.141 1.038-.075 2.015-.315 2.984-.564z" fill="#00CBFF" data-color="3"></path>
        <path d="M97.604 109.488c-.131-.019-.256-.076-.385-.104.494-1.805.996-3.609 1.46-5.422.041-.161.082-.33.125-.493 1.708.351 3.603.865 5.148 1.78-.481.946-.77 1.985-1.069 3.001l-.16.551c-.533-.061-1.067-.095-1.605-.026-1.183.15-2.373.549-3.514.713z" fill="#FFF171" data-color="4"></path>
        <path d="M89.207 157.679a.58.58 0 0 0 .023.113 27.796 27.796 0 0 0 .101 3.806c-.248.795-.499 1.59-.74 2.387-.595-.851-1.345-1.651-1.907-2.395-.61-.807-1.253-1.585-1.887-2.372a29.426 29.426 0 0 0-.792-2.424c.525-1.569.89-3.234 1.327-4.792.593-2.111 1.193-4.22 1.793-6.33a304.886 304.886 0 0 1 1.597-5.384c1.034.264 2.082.532 3.135.59.91.05 1.821-.051 2.732-.154.237.304.477.615.756.837-.91 1.701-1.187 3.905-1.698 5.735-.429 1.537-.884 3.066-1.337 4.596-2.083 1.148-3.368 3.37-3.103 5.787z" fill="#00CBFF" data-color="3"></path>
        <path d="M86.964 164.969c-.23-.025-.441-.045-.608-.066-1.028-.133-2.056-.26-3.085-.379.463-.203.896-.465 1.23-.837.33-.368.497-.785.604-1.216l.227.299c.509.672 1.031 1.483 1.632 2.199z" fill="#00CBFF" data-color="3"></path>
        <path d="M99.331 141.324c-.951-.208-2.028-.523-3.018-.395-.031-.115-.109-.225-.152-.339.074-.003.148-.018.222-.019 1.151-.019 2.32.028 3.434-.312 1.931-.59 2.466-1.828 2.955-3.303.695.272 1.395.534 2.08.827.566 1.162 1.473 2.272 2.147 3.301.575.878 1.11 1.859 1.778 2.705-.572-.178-1.163-.306-1.733-.444-1.26-.304-2.506-.661-3.753-1.015a65.946 65.946 0 0 0-3.96-1.006z" fill="#00CBFF" data-color="3"></path>
        <path d="M106.223 136.794l1.891-5.589c.434-1.283 1.019-2.619 1.394-3.972.529.853 1.191 1.657 1.762 2.4.763.993 1.494 2.145 2.412 3.01-.006.053-.027.102-.025.156.005.129-.014.261-.02.391-.939-.557-1.921-.884-3.06-.259-.809.443-1.236 1.202-1.416 2.082-.291 1.422-.314 2.968-.516 4.412-.053.375-.039.731-.051 1.094l-.119-.191c-.7-1.114-1.364-2.482-2.252-3.534z" fill="#00CBFF" data-color="3"></path>
        <path d="M76.779 160.217c-.657.376-1.234.831-1.8 1.293-.267-.398-.515-.81-.789-1.203a73.622 73.622 0 0 1-1.864-2.803c-.071-.112-.14-.227-.209-.342 1.531.31 3.093.531 4.624.792.733.125 1.52.306 2.316.457-.516.948-1.336 1.266-2.278 1.806z" fill="#FFF171" data-color="4"></path>
        <path d="M92.924 134.639c-.143-.048-.288-.054-.431-.096-.07-.105-.132-.214-.202-.318.892.18 1.792.326 2.691.482-.695.162-1.513.116-2.058-.068z" fill="#FFF171" data-color="4"></path>
        <path d="M73.121 132.767c.544-1.091 1.14-2.194 1.715-3.303.286.021.571.06.86.049-.217.578-.265 1.246-.382 1.863a370.912 370.912 0 0 1-.674 3.462c-.073.366-.151.73-.225 1.095-.422-.171-.891-.267-1.325-.373-.612-.149-1.226-.291-1.839-.435.855-.529 1.401-1.419 1.87-2.358z" fill="#00CBFF" data-color="3"></path>
    </g>
</svg>