<svg width="128" height="128" viewBox="0 0 128 128" fill="none" xmlns="http://www.w3.org/2000/svg">
<path d="M116.65 4.82999H11.36C7.75358 4.82999 4.83 7.75357 4.83 11.36V116.65C4.83 120.256 7.75358 123.18 11.36 123.18H116.65C120.256 123.18 123.18 120.256 123.18 116.65V11.36C123.18 7.75357 120.256 4.82999 116.65 4.82999Z" fill="#3D5A98"/>
<path d="M86.48 123.17V77.34H101.86L104.16 59.48H86.48V48.08C86.48 42.91 87.92 39.38 95.33 39.38H104.79V23.38C100.209 22.9026 95.6056 22.6756 91 22.7C77.38 22.7 68 31 68 46.31V59.48H52.62V77.34H68V123.17H86.48Z" fill="white"/>
</svg>
