<svg xmlns:xlink="http://www.w3.org/1999/xlink" preserveAspectRatio="xMidYMid meet" data-bbox="20 47.5 160 105" xmlns="http://www.w3.org/2000/svg" width="200" height="200" viewBox="20 47.5 160 105" data-type="color" role="presentation" aria-hidden="true" aria-labelledby="svgcid-bk4ve3hrdyru"><title id="svgcid-bk4ve3hrdyru"></title>
    <g>
        <path fill="#DB6D4F" d="M82.086 74.541l-4.439-3.709 17.625-21.117A6.143 6.143 0 01100 47.5c1.83 0 3.554.807 4.728 2.215l17.625 21.117-4.439 3.709-17.625-21.117a.375.375 0 00-.578 0L82.086 74.541z" data-color="1"></path>
        <path fill="#DB6D4F" d="M173.789 149.607H26.211a3.319 3.319 0 01-3.319-3.319V76.53a3.319 3.319 0 013.319-3.319H173.79a3.319 3.319 0 013.319 3.319v69.758a3.32 3.32 0 01-3.32 3.319z" data-color="1"></path>
        <path opacity=".2" d="M173.789 149.607H26.211a3.319 3.319 0 01-3.319-3.319V76.53a3.319 3.319 0 013.319-3.319H173.79a3.319 3.319 0 013.319 3.319v69.758a3.32 3.32 0 01-3.32 3.319z"></path>
        <path fill="#DB6D4F" d="M173.79 152.5H26.21a6.219 6.219 0 01-6.21-6.213V76.531a6.219 6.219 0 016.21-6.213h147.58a6.219 6.219 0 016.21 6.213v69.756a6.218 6.218 0 01-6.21 6.213zM26.21 76.104a.427.427 0 00-.426.427v69.756c0 .235.191.427.426.427h147.58a.427.427 0 00.426-.427V76.531a.427.427 0 00-.426-.427H26.21z" data-color="1"></path>
        <path d="M103.136 55.636A3.144 3.144 0 01100 58.788a3.144 3.144 0 01-3.136-3.152A3.144 3.144 0 01100 52.484a3.144 3.144 0 013.136 3.152z" fill="#FCF297" data-color="2"></path>
        <path fill="#FCF297" d="M71.467 113.549c0 9.146-1.013 15.643-3.038 19.488-2.026 3.847-5.421 5.77-10.185 5.77-5.009 0-8.537-2.068-10.585-6.206-2.025-4.047-3.038-11.236-3.038-21.567 0-9.213 1.002-15.731 3.005-19.556 2.025-3.846 5.454-5.77 10.284-5.77 4.318 0 7.524 1.487 9.617 4.462 1.38 1.99 2.381 4.818 3.005 8.486.624 3.399.935 8.364.935 14.893zm-7.279.738c0-8.968-.4-14.915-1.202-17.845-.801-2.952-2.438-4.428-4.908-4.428s-4.118 1.353-4.941 4.059c-.802 2.729-1.202 8.207-1.202 16.436 0 7.581.423 12.836 1.269 15.765.868 2.773 2.493 4.16 4.875 4.16 2.338 0 3.94-1.297 4.809-3.892.866-2.571 1.3-7.323 1.3-14.255z" data-color="2"></path>
        <path fill="#FCF297" d="M78.346 86.379h9.148c4.408 0 7.613 1.119 9.617 3.354 2.003 2.259 3.005 5.837 3.005 10.733 0 6.888-2.015 11.338-6.044 13.351-2.025.917-4.953 1.375-8.781 1.375v22.977h-6.945v-51.79zm6.946 22.843c2.871 0 4.853-.581 5.943-1.744 1.112-1.185 1.669-3.287 1.669-6.306 0-3.086-.534-5.345-1.603-6.776-1.068-1.431-2.749-2.146-5.042-2.146h-.968v16.972z" data-color="2"></path>
        <path fill="#FCF297" d="M105.46 86.379h18.465v5.903h-11.52v16.402h10.217v5.904h-10.217v17.677h11.52v5.903H105.46V86.379z" data-color="2"></path>
        <path fill="#FCF297" d="M130.303 86.379h6.478l6.912 20.662c2.003 5.837 3.772 12.064 5.309 18.684-.557-4.003-.968-7.625-1.235-10.868-.267-3.241-.4-6.294-.4-9.156V86.379h6.979v51.79h-6.511l-7.78-23.312a150.972 150.972 0 01-2.021-6.675 120.884 120.884 0 01-1.753-7.178c-.045-.313-.116-.693-.217-1.141s-.217-.961-.351-1.543c.066.582.122 1.079.167 1.493.044.414.077.766.1 1.056l.368 5.267.367 6.406c.021.358.038.795.05 1.309.011.515.017 1.096.017 1.744l.367 22.574h-6.845v-51.79z" data-color="2"></path>
    </g>
</svg>