<svg xmlns:xlink="http://www.w3.org/1999/xlink" preserveAspectRatio="xMidYMid meet" data-bbox="31.242 12.901 146.999 177" viewBox="31.242 12.901 146.999 177" height="200" width="200" xmlns="http://www.w3.org/2000/svg" data-type="color" role="presentation" aria-hidden="true" aria-labelledby="svgcid-bwqsrp-31srr"><title id="svgcid-bwqsrp-31srr"></title>
    <g>
        <path d="M164.724 112.592c17.802 10.288 17.832 26.937.213 37.196l-56.076 32.404c-17.634 10.261-46.315 10.295-64.127 0-17.739-10.263-17.832-26.953-.208-37.206l56.076-32.403c17.62-10.26 46.381-10.25 64.122.009z" opacity=".5"></path>
        <path d="M79.978 119.319c-.044 3.614.206 8.057 3.568 15.092-2.427-4.924-3.886-10.225-3.913-15.085.233.003.336.003.345-.007z" fill="#D43726" data-color="1"></path>
        <path d="M116.334 152.105c-.242.272-.581.622-.84.873.297-.268.575-.559.84-.873z" fill="#D43726" data-color="1"></path>
        <path d="M124.529 12.901c-4.326.01-8.05 1.071-10.06 1.643-2.785.793-5.248 2.107-7.625 3.385h-.006s-.009.002-.009.006c-.008.002-.013.002-.013.006v-.004c-8.471 4.871-14.678 11.699-24.576 27.027 3.122-4.888 8.584-6.145 14.807-2.52 6.153-9.634 14.14-17.939 22.854-22.976 8.974-5.188 17.16-5.251 23.402-1.624-6.216-3.482-11.834-4.962-18.774-4.943z" fill="#EB6361" data-color="2"></path>
        <path d="M143.303 17.844c-6.242-3.627-14.428-3.564-23.402 1.624-8.714 5.038-16.701 13.342-22.854 22.976l4.391 2.562c6.159-9.637 14.502-17.492 23.212-22.532 8.972-5.188 16.813-5.698 23.05-2.071l-4.397-2.559z" fill="#FF9F9F" data-color="3"></path>
        <path d="M164.189 39.671c-.992-2.636-3.059-6.807-7.273-11.729-3.189-3.722-6.962-6.107-9.216-7.539-6.237-3.627-14.428-3.564-23.4 1.624-8.711 5.04-16.703 13.342-22.863 22.979-6.145-2.524-14.284-2.085-23.037 2.976C58.963 59.226 42.928 90.807 43 113.185c.036 14.613 8.358 23.883 18.323 29.682 4.145 2.294 10.399 5.761 22.196 8.777 12.302 3.15 23.728 3.486 25.894 3.524 2.372.032 4.437-.723 6.061-2.172.307-.299.705-.717 1.118-1.244-.049.067-.112.168-.156.232 4.277-5.169 41.985-51.415 49.525-83.155 3.56-15.019-.309-25.291-1.772-29.158z" fill="#EB6361" data-color="2"></path>
        <path d="M119.226 142.319c-3.446-.426-43.058-4.148-42.248-28.046-.057-13.306 9.475-31.755 19.2-37.178 4.812-2.782 9.161-3.294 22.903 2.34 13.748-21.532 18.105-26.057 22.873-28.815 9.696-5.854 19.328 1.543 19.347 14.883.95 22.434-38.656 72.409-42.075 76.816z" fill="#D43726" data-color="1"></path>
        <path d="M56.932 140.307c-2.147-1.337-5.022-3.104-6.991-4.692-3.684-2.967-4.042-3.347-7.502-6.994-3.842-4.044-6.515-9.455-7.515-11.49-1.69-3.404-3.071-8.878-3.395-12.001-.646-6.307-.099-10.527.617-15.006 1.918-11.984 8.959-25.855 14.609-32.818 3.759-4.635 11.582-14.278 26.298-17.608 4.224-.953 12.678-2.008 21.785 1.653.724.295 1.463.658 2.21 1.092-6.151-2.522-13.869-1.014-22.626 4.053-19.438 11.241-35.004 41.774-34.939 64.148.044 14.616 7.488 23.864 17.449 29.663z" fill="#EB6361" data-color="2"></path>
        <path d="M61.323 142.867l-4.391-2.56c-9.961-5.799-17.844-15.006-17.888-29.621-.066-22.374 15.655-53.507 35.093-64.748 8.757-5.067 16.76-6.016 22.911-3.494l2.081.593 2.31 1.969c-6.145-2.524-14.15-1.571-22.903 3.49C59.098 59.74 43.374 90.87 43.445 113.248c.036 14.613 7.913 23.82 17.878 29.619z" fill="#FF9F9F" data-color="3"></path>
        <path fill="#0095BD" d="M124.999 115.694l-6.217-3.627 4.113-18.135 6.66 3.873-4.556 17.889z" data-color="4"></path>
        <path fill="#83D7EA" d="M129.739 97.911l-6.844-3.979 49.39-28.564 5.945 3.46-.429.823.44.284-48.502 27.976z" data-color="5"></path>
        <path fill="#0095BD" d="M124.43 141.167l-5.936-3.46-11.873-43.38 6.96 3.584 10.849 43.056v.2z" data-color="4"></path>
        <path fill="#83D7EA" d="M104.55 111.723l-6.187-3.601 8.037-41.329 5.938 3.454.053.387-7.841 41.089z" data-color="5"></path>
        <path fill="#83D7EA" d="M58.698 138.768l-5.884-2.898.473-.279-.55-1.083 45.626-26.386 6.378 3.713-46.043 26.933z" data-color="5"></path>
        <path fill="#83D7EA" d="M59.449 143.415l-.751 1.571-5.938-3.46-.023-7.018 6.555 3.813.531 5.932-.374-.838z" data-color="5"></path>
        <path d="M59.449 143.415l-.751 1.571-5.938-3.46-.023-7.018 6.555 3.813.531 5.932-.374-.838z" opacity=".2"></path>
        <path fill="#83D7EA" d="M112.338 70.247l12.38 45.283 4.122-18.141 49.39-28.561.011 7.018-44.869 25.95-8.942 39.371-11.873-43.38-3.5 18.074-50.359 29.125-.019-7.022 45.625-26.384 8.034-41.333z" data-color="5"></path>
        <path d="M112.338 70.247l12.38 45.283 4.122-18.141 49.39-28.561.011 7.018-44.869 25.95-8.942 39.371-11.873-43.38-3.5 18.074-50.359 29.125-.019-7.022 45.625-26.384 8.034-41.333z" opacity=".2"></path>
        <path d="M43.3 74.836c0-5.248 4.233-9.468 9.433-9.468 5.21 0 9.445 4.22 9.445 9.468 0 5.207-4.235 9.456-9.445 9.456-5.2-.001-9.433-4.25-9.433-9.456z" fill="#FFFFFF" data-color="6"></path>
    </g>
</svg>