<svg xmlns:xlink="http://www.w3.org/1999/xlink" preserveAspectRatio="xMidYMid meet" data-bbox="37.919 20.301 124.161 159.395" xmlns="http://www.w3.org/2000/svg" width="200" height="200" viewBox="37.919 20.301 124.161 159.395" data-type="color" role="presentation" aria-hidden="true" aria-labelledby="svgcid-otqyut-f71e5g"><title id="svgcid-otqyut-f71e5g"></title>
    <g>
        <path fill="#B499D6" d="M162.08 179.696c-.084-27.9-27.844-50.496-62.08-50.496s-61.996 22.596-62.081 50.496H162.08z" data-color="1"></path>
        <path fill="#6D3827" d="M119.777 131.869a72.849 72.849 0 00-7.778-1.696V117.2H88.001v12.973a72.849 72.849 0 00-7.778 1.696c0 .034-.005.067-.005.101 0 10.926 8.857 19.782 19.782 19.782s19.782-8.857 19.782-19.782c0-.034-.005-.067-.005-.101z" data-color="2"></path>
        <path opacity=".1" d="M88.001 121.865h23.997l.001 5.3s-4.555 1.794-13.382-.078-10.616-3.994-10.616-3.994v-1.228z"></path>
        <path fill="#1A1A1A" d="M148.333 75.381a3.005 3.005 0 002.049-2.811 3.004 3.004 0 00-1.209-2.434 2.986 2.986 0 00.769-1.96 3 3 0 00-1.534-2.641 2.999 2.999 0 001.534-2.58 3.003 3.003 0 00-2.043-2.87c.384-.5.624-1.117.631-1.796a3.015 3.015 0 00-2.379-2.978c.471-.526.77-1.21.778-1.971a3.012 3.012 0 00-2.938-3.04 3 3 0 00.942-2.151 3.015 3.015 0 00-2.982-3.045c-.049 0-.096.011-.144.013a3.015 3.015 0 00-2.734-4.213 2.992 2.992 0 00-1.053.188 2.99 2.99 0 00.418-1.474 3.015 3.015 0 00-2.982-3.045c-.4-.004-.782.074-1.133.212a2.99 2.99 0 00.149-.861 3.015 3.015 0 00-2.982-3.045 3 3 0 00-1.067.192c.003-.054.017-.106.018-.161a3.015 3.015 0 00-2.982-3.045 3 3 0 00-2.079.811c.07-.25.12-.508.123-.78a3.014 3.014 0 00-2.982-3.045 2.982 2.982 0 00-1.48.386c.015-.118.038-.233.04-.355a3.015 3.015 0 00-2.982-3.045 2.995 2.995 0 00-2.224.961 3.007 3.007 0 00-2.97-2.912 2.995 2.995 0 00-2.334 1.09 3.006 3.006 0 00-2.795-1.997 2.996 2.996 0 00-2.214.948 3.001 3.001 0 00-2.628-1.626A3.006 3.006 0 00100 22.543a3.006 3.006 0 00-2.934-2.242 3 3 0 00-2.628 1.626 2.998 2.998 0 00-2.214-.948 3.006 3.006 0 00-2.795 1.997 2.994 2.994 0 00-2.334-1.09 3.007 3.007 0 00-2.97 2.912 2.995 2.995 0 00-2.224-.961 3.013 3.013 0 00-2.982 3.045c.001.122.024.237.04.355a2.992 2.992 0 00-1.48-.386 3.014 3.014 0 00-2.982 3.045c.003.272.053.53.123.78a3 3 0 00-2.079-.811 3.015 3.015 0 00-2.982 3.045c.001.055.014.107.018.161a2.983 2.983 0 00-1.067-.192 3.014 3.014 0 00-2.982 3.045c.003.302.064.587.149.861a3.004 3.004 0 00-4.115 2.833 2.98 2.98 0 00.418 1.474 2.974 2.974 0 00-1.053-.188 3.013 3.013 0 00-2.734 4.213c-.049-.002-.095-.014-.144-.013a3.015 3.015 0 00-2.982 3.045c.009.849.371 1.61.942 2.151a3.011 3.011 0 00-2.938 3.04c.008.761.307 1.445.778 1.971a3.015 3.015 0 00-2.379 2.978c.007.679.246 1.296.631 1.796a3.004 3.004 0 00-2.043 2.87 3.003 3.003 0 001.534 2.58 3.001 3.001 0 00-1.534 2.641c.008.756.303 1.436.769 1.96a3.003 3.003 0 00-1.209 2.434 3.005 3.005 0 002.049 2.811 3.002 3.002 0 00-1.609 2.683 3.004 3.004 0 002.102 2.827 3.004 3.004 0 00.192 4.026c.443.443.992.707 1.564.816l.029.085a2.985 2.985 0 00-.874 2.134 3.008 3.008 0 002.314 2.89 3.004 3.004 0 00-.902 2.175 3.014 3.014 0 003.045 2.982c.053-.001.103-.014.155-.017a2.992 2.992 0 00-.187 1.049 3.012 3.012 0 003.017 2.979c0 .012-.003.022-.003.034a3.014 3.014 0 003.045 2.982h.005c-.017.133-.038.265-.036.403a3.014 3.014 0 003.045 2.982c.11-.001.214-.023.321-.036a3.006 3.006 0 003.026 2.817c.097-.001.188-.022.282-.032 8.054 6.256 18.165 9.992 29.153 9.992 11.078 0 21.263-3.797 29.349-10.146.215.051.436.084.666.086a3.008 3.008 0 003.034-2.886c.322.122.667.201 1.031.204a3.015 3.015 0 003.045-2.982c.001-.138-.02-.27-.036-.403h.005a3.014 3.014 0 003.045-2.982c0-.012-.003-.023-.003-.034a3.013 3.013 0 003.017-2.979 2.97 2.97 0 00-.187-1.049c.053.003.102.017.155.017a3.014 3.014 0 003.045-2.982 3 3 0 00-.901-2.175 3.008 3.008 0 002.314-2.89 2.998 2.998 0 00-.93-2.199 2.992 2.992 0 001.649-.836 3.003 3.003 0 00.192-4.026 3.002 3.002 0 002.102-2.827 3.004 3.004 0 00-1.61-2.682z" data-color="3"></path>
        <path fill="#6D3827" d="M133.882 93.775H66.118a4.791 4.791 0 110-9.582h67.763a4.791 4.791 0 014.791 4.791 4.79 4.79 0 01-4.79 4.791z" data-color="2"></path>
        <path opacity=".06" fill="#6D3827" d="M133.882 93.775H66.118a4.791 4.791 0 110-9.582h67.763a4.791 4.791 0 014.791 4.791 4.79 4.79 0 01-4.79 4.791z" data-color="2"></path>
        <g opacity=".06">
            <path d="M133.882 93.775H66.118a4.791 4.791 0 110-9.582h67.763a4.791 4.791 0 014.791 4.791 4.79 4.79 0 01-4.79 4.791z"></path>
            <path opacity=".06" d="M133.882 93.775H66.118a4.791 4.791 0 110-9.582h67.763a4.791 4.791 0 014.791 4.791 4.79 4.79 0 01-4.79 4.791z"></path>
        </g>
        <path d="M133.076 91.035c0 18.267-14.809 33.076-33.076 33.076-18.267 0-33.076-14.809-33.076-33.076 0-18.267 14.809-33.076 33.076-33.076 18.267 0 33.076 14.809 33.076 33.076z" fill="#6D3827" data-color="2"></path>
        <path opacity=".1" d="M100 89.173a3.716 3.716 0 013.612 2.862c.066-.277.109-.562.109-.859a3.721 3.721 0 00-7.442 0c0 .297.044.582.109.859A3.716 3.716 0 01100 89.173z"></path>
        <path fill="#1A1A1A" d="M86.901 99.92c0 .043-.003.085-.003.128 0 7.236 5.866 13.102 13.102 13.102s13.102-5.866 13.102-13.102c0-.043-.003-.085-.003-.128H86.901z" data-color="3"></path>
        <path fill="#FFFFFF" d="M86.901 99.92c0 .043-.003.085-.003.128 0 1.007.124 1.983.339 2.925h25.525c.215-.942.339-1.918.339-2.925 0-.043-.003-.085-.003-.128H86.901z" data-color="4"></path>
        <path fill="#C1272D" d="M93.931 111.669a13.035 13.035 0 0012.074 0c-1.51-1.614-3.653-2.628-6.037-2.628s-4.527 1.014-6.037 2.628z" data-color="5"></path>
        <path d="M120.648 82.411a1.575 1.575 0 11-3.15 0 1.575 1.575 0 013.15 0z" fill="#1A1A1A" data-color="3"></path>
        <path d="M82.502 82.411a1.575 1.575 0 11-3.15 0 1.575 1.575 0 013.15 0z" fill="#1A1A1A" data-color="3"></path>
        <path fill="#1A1A1A" d="M109.861 59.273c-1.021 0-1.92.511-2.465 1.288-.545-.777-1.444-1.288-2.465-1.288s-1.92.511-2.465 1.288c-.545-.777-1.444-1.288-2.465-1.288s-1.92.511-2.465 1.288c-.545-.777-1.444-1.288-2.465-1.288s-1.92.511-2.465 1.288a3.006 3.006 0 00-2.465-1.288 3.013 3.013 0 000 6.026c1.021 0 1.92-.511 2.465-1.288.545.777 1.444 1.288 2.465 1.288s1.92-.511 2.465-1.288a3.001 3.001 0 004.929.001c.545.777 1.444 1.288 2.465 1.288s1.92-.511 2.465-1.288a3.006 3.006 0 002.465 1.288 3.013 3.013 0 00.001-6.027z" data-color="3"></path>
        <path fill="#F4AA00" d="M100 61.3c11.562 0 21.733 4.608 27.646 11.585C121.733 63.897 111.562 57.96 100 57.96c-11.563 0-21.733 5.937-27.646 14.925C78.267 65.908 88.437 61.3 100 61.3z" data-color="6"></path>
        <path d="M135.995 93.775a2.24 2.24 0 11-4.48 0 2.24 2.24 0 014.48 0z" fill="#E8D9CD" data-color="7"></path>
        <path d="M68.29 93.775a2.24 2.24 0 11-4.48 0 2.24 2.24 0 014.48 0z" fill="#E8D9CD" data-color="7"></path>
    </g>
</svg>