<svg xmlns:xlink="http://www.w3.org/1999/xlink" preserveAspectRatio="xMidYMid meet" data-bbox="36.501 55.001 126.999 89.997" viewBox="36.501 55.001 126.999 89.997" height="200" width="200" xmlns="http://www.w3.org/2000/svg" data-type="color" role="presentation" aria-hidden="true" aria-labelledby="svgcid-t9v98tja9v9r"><title id="svgcid-t9v98tja9v9r"></title>
    <g>
        <path d="M100.766 99.188a59.05 59.05 0 0 1-1.499 1.374c-.179.159-.369.306-.545.463.049-.592.013-1.194-.031-1.804a20.366 20.366 0 0 0-.479-3.105 23.244 23.244 0 0 0-.444-1.636c.066.004.132.009.201.016.45.048.894.159 1.323.298.82.267 1.578.675 2.338 1.074.552.29 1.099.597 1.649.898-.903.728-1.677 1.626-2.513 2.422z" fill="#00CBFF" data-color="1"></path>
        <path d="M71.561 104.799c.063.04.135.069.217.079.899.108 1.747.13 2.616.425.783.266 1.515.666 2.197 1.129 1.403.952 2.573 2.206 3.757 3.405.83.842 1.654 1.691 2.485 2.534-.207.077-.411.167-.616.243-.495.183-.993.36-1.493.529-1.002.341-2.018.642-3.013 1.003-1.894.686-3.717 1.61-5.005 3.197a9.658 9.658 0 0 0-.891 1.306c-.82.123-1.64.365-2.454.482a29.17 29.17 0 0 1-3.275.269 36.875 36.875 0 0 1-6.582-.375c-3.722-.556-7.53-2.002-9.427-5.416a32.44 32.44 0 0 1 1.297-.734c1.779-.884 3.646-1.619 5.48-2.321l2.51-.958.185-.059a41.125 41.125 0 0 0 4.981-1.914c1.299-.499 2.593-1.009 3.889-1.513 1.057-.412 2.139-.783 3.142-1.311z" fill="#00CBFF" data-color="1"></path>
        <path d="M92.803 104.335c.601.271 1.189.568 1.781.859-.754.528-1.424 1.219-2.147 1.775-.72.555-1.547 1.045-2.263 1.626.006-.076.012-.151.016-.227.093-1.653-.17-3.306-.564-4.915.491.109 1.012.122 1.502.259.575.161 1.132.379 1.675.623z" fill="#00CBFF" data-color="1"></path>
        <path d="M151.451 82.244c-.924.232-1.852.45-2.784.65-1.968.422-3.957.754-5.963.926-1.941.166-3.899.187-5.839-.007a25.9 25.9 0 0 1-2.826-.442 23.286 23.286 0 0 1-1.473-.366l-.169-.05c.451-.75.892-1.508 1.384-2.23a69.24 69.24 0 0 0 1.495-2.292c.011.002.02.007.031.009 1.313.25 2.76.132 4.09.067 1.327-.066 2.649-.2 3.964-.39a40.258 40.258 0 0 0 7.029-1.666c1.099-.368 2.217-.752 3.142-1.376-.391 2.15-.202 4.473.133 6.608-.733.033-1.547.392-2.214.559z" fill="#FFF171" data-color="2"></path>
        <path d="M138.049 71.548c-.296-.165-.594-.403-.882-.632a8.894 8.894 0 0 0-.702-.523 18.191 18.191 0 0 0-2.795-1.474c-1.771-.742-4.393-1.633-6.709-.793-1.931.701-3.402 2.296-4.698 3.703l-.097.105a116.7 116.7 0 0 0-4.6 5.295 90.971 90.971 0 0 0-2.472 3.17c-.379.507-.754 1.018-1.125 1.531-.102.141-.201.287-.301.435-.24.354-.467.689-.739.967l-.07.095c-.111.204-.254.4-.387.585-.085.119-.168.233-.239.341l-.335.396.454.254c.465.259.911.537 1.326.826l.759.525.258-.171c.272-.158.569-.199.885-.121.481.12.967.51 1.267 1.018.554.937.606 2.255.128 3.205-.459.911-1.421 1.379-2.404 1.164-.911-.2-2.02-.943-2.22-1.795l-.048-.201-.187-.089a25.22 25.22 0 0 1-1.609-.857l-.514-.289-.193.434c-.089.2-.222.394-.363.6l-1.016 1.511c-.273.407-.544.816-.813 1.227l-.13.209c-.093.151-.172.282-.262.37l-.183.181.073.246c.136.454.277 1.039.165 1.536l-.071.316.782.434.23-.228a.928.928 0 0 1 .744-.248c.663.068 1.415.712 1.832 1.282.705.964.295 2.328-.473 3.177-.81.894-2.124 1.226-3.193.807-.833-.326-1.664-1.095-1.499-2.276l.045-.319-.296-.132a20.59 20.59 0 0 1-1.195-.583l-.36-.189-.211.347c-.528.871-1.304 1.644-2.055 2.391l-.332.331c-.446.448-.899.889-1.361 1.321-.087.081-.175.17-.265.26-.31.311-.631.633-1.006.697l-.419-.068-.157.383-.094.353.424.278c.107.073.225.157.346.25l.203.159.238-.104c.775-.339 1.614.264 1.95 1.018.466 1.048-.077 2.149-.683 2.774-.778.801-1.965 1.124-2.886.785-.825-.303-1.335-1.079-1.298-1.976l.011-.292-.886-.397-.207.292c-.494.698-1.231 1.292-1.943 1.866l-.663.541c-.803.665-1.633 1.353-2.538 1.732l-.354-.008-.078.344a7.58 7.58 0 0 1-.333 1.11c-.101.257-.214.51-.342.754l-.266.507.563.113c.417.083.704.663.701 1.132-.006.971-.74 1.846-1.465 2.283a2.653 2.653 0 0 1-2.648.047c-.75-.416-1.185-1.144-1.189-2.03l.037-.22-1.075-1.072-.303.244c-.422.339-1.042.561-1.589.756l-.228.082c-.568.207-1.143.397-1.718.586l-.91.303c-1.771.599-3.784 1.368-5.251 2.912-3.492 3.675-2.775 9.682-2.306 12.094l.078.396.402-.052c3.269-.424 6.577-.961 9.775-1.481 1.906-.31 3.811-.619 5.713-.906 4.916-.742 9.034-1.243 12.96-1.576 1.583-.134 3.168-.25 4.754-.357l.469-.032-.072-.462c-.486-3.123-.05-6.633 1.294-10.434 1.414-3.998 4.093-7.158 6.528-9.723a249.299 249.299 0 0 1 3.366-3.453c1.941-1.966 3.948-3.998 5.809-6.12 3.166-3.61 5.873-7.067 8.274-10.568a108.516 108.516 0 0 0 3.97-6.231c.443-.751.859-1.525 1.276-2.301.725-1.348 1.474-2.742 2.361-3.982l.279-.389-.418-.232z" fill="#00CBFF" data-color="1"></path>
        <path d="M96.297 82.718a.548.548 0 0 0 .048-.119c.074-.085.149-.169.221-.256.043-.052.087-.115.133-.178.18.224.366.436.542.631a2.506 2.506 0 0 0-.944-.078z" fill="#00CBFF" data-color="1"></path>
        <path d="M102.752 91.389c.126.319.225.705.427.995-1.02-.441-2.06-.836-3.134-1.13a17.2 17.2 0 0 0-2.191-.451c-.514-.071-1.094-.205-1.605-.079a24.88 24.88 0 0 0-.313-.607c-.694-1.298-1.605-3.158-2.985-3.995.148-.113.292-.24.422-.377.567.151 1.27-.023 1.852-.002.716.026 1.424.127 2.125.272.714.148 1.417.344 2.127.511.277.065.588.147.888.152a27.018 27.018 0 0 1 1.586 2.848c.295.61.553 1.233.801 1.863z" fill="#00CBFF" data-color="1"></path>
        <path d="M105.332 87.083c.594.093 1.188.179 1.776.354.811.242 1.58.577 2.325.97-.589.539-1.027 1.38-1.446 1.993-.289.423-.575.849-.858 1.277a33.6 33.6 0 0 0-1.087-3.013 38.666 38.666 0 0 0-.71-1.581z" fill="#00CBFF" data-color="1"></path>
        <path d="M130.54 66.282c.162-.297.205-.638.094-.96-.27-.783-1.141-1.294-1.783-1.747-1.26-.889-2.35-1.876-3.657-2.691-1.74-1.101-5.248-3.288-7.015-3.698-.164-.003-1.18-.065-1.35-.041-.667.095-1.279.386-1.902.626-.274.286-.576.552-.854.84a34.56 34.56 0 0 0-1.798 2.027c-1.192 1.441-2.257 2.981-3.271 4.549-2.045 3.164-3.878 6.464-6.064 9.537a43.744 43.744 0 0 1-1.865 2.443c-.458.556-.936 1.187-1.495 1.691.668.396 1.195 1.006 1.673 1.609.61.771 1.184 1.57 1.722 2.393.42-.344 1.027-.281 1.559-.285a16.4 16.4 0 0 1 2.006.106 15.887 15.887 0 0 1 5.085 1.462c.099-.189.314-.374.409-.482l.134-.149a.448.448 0 0 1 .033-.23c.453-1.1 1.383-2.076 2.105-3.017a168.63 168.63 0 0 1 2.289-2.903 119.528 119.528 0 0 1 4.93-5.759c1.423-1.56 2.924-3.196 4.921-4.019 1.175-.484 2.409-.555 3.631-.393l-.009-.004c-.078-.034-.089-.16-.028-.213.157-.139.401-.51.5-.692zm-16.321 11.159c-.027-.02-.039-.053-.044-.093.1.11.132.157.044.093z" fill="#00CBFF" data-color="1"></path>
        <path d="M155.468 64.121c-.019-.616-.218-1.165-.41-1.696l-.16-.448-.231-.053c-.17-.039-.339-.092-.506-.143-.127-.039-.253-.078-.377-.111-.588-.158-1.176-.316-1.769-.458a51.978 51.978 0 0 0-3.516-.712 47.895 47.895 0 0 0-7.228-.644 48.835 48.835 0 0 0-7.237.427 47.529 47.529 0 0 0-5.398 1.051 16.25 16.25 0 0 0-.449.123l-.865.243L129 62.885l.251-.186c.4-.295 1.074-.453 1.437-.537.796-.185 1.639-.213 2.285-.218 1.764-.011 3.628-.045 5.865-.108l1.876-.057a236.21 236.21 0 0 1 4.372-.11c1.838-.019 3.777.031 5.582.6.72.227 1.616.51 2.017 1.091.132.193.18.378.144.551l-.09.425.086.017c-.39.342-1.093.533-1.616.675-.819.223-1.662.346-2.452.446-.608.078-1.216.151-1.824.225-1.248.151-2.496.303-3.741.486-3.296.484-6.532 1.067-9.537 1.624l-1.431.265 1.345.553c.902.371 1.751.807 2.523 1.295.475.302.962.647 1.463 1.039.357.28.727.569.845.929l-.063.205c-.077.482-.397 1.015-.679 1.486l-1.49 2.548c-.14.24-.282.478-.453.761l-.403.672.787-.023c.421-.012.847-.001 1.274.01.303.008.607.016.909.016.14 0 .28-.002.42-.006a40.699 40.699 0 0 0 3.109-.213 39.819 39.819 0 0 0 6.4-1.233 40.394 40.394 0 0 0 2.968-.949c.987-.359 1.93-.743 2.618-1.496.706-.772.969-1.78 1.148-2.754.2-1.083.305-2.197.382-3.144.086-1.099.178-2.381.141-3.649z" fill="#00CBFF" data-color="1"></path>
        <path d="M85.658 94.921a10.703 10.703 0 0 0-.95-.988c.003-.014.006-.028.007-.042.575.108 1.247-.244 1.816-.315.729-.091 1.474-.067 2.204-.002.815.073 1.619.219 2.427.341.547.083 1.133.224 1.7.216.058.137.115.275.169.414a28.33 28.33 0 0 1 1.017 3.209c.233.895.376 1.856.784 2.687-1.139-.497-2.328-.895-3.556-1.106a11.47 11.47 0 0 0-1.869-.165c-.372-.002-.77-.015-1.147.046a18.01 18.01 0 0 0-1.062-2.143 13.71 13.71 0 0 0-1.54-2.152z" fill="#00CBFF" data-color="1"></path>
        <path d="M89.506 89.863a7.589 7.589 0 0 0-.659-.017l.148-.117c.217-.174.461-.349.674-.548.226.275.454.545.679.816a7.816 7.816 0 0 0-.842-.134z" fill="#00CBFF" data-color="1"></path>
        <path d="M86.651 109.428c-.229-.283-.464-.559-.693-.83a30.387 30.387 0 0 0-2.087-2.234c-1.371-1.323-2.895-2.598-4.551-3.568.676.118 1.363.164 2.048.191.808.032 1.62.029 2.425.104.488.045 1.062.233 1.59.241.157.39.304.784.436 1.184.301.913.552 1.845.691 2.797.098.682.033 1.426.141 2.115z" fill="#00CBFF" data-color="1"></path>
        <path d="M83.627 99.765c-.314-.028-.63-.027-.881-.044a84.926 84.926 0 0 0-2.47-.135c-.581-.023-1.277-.052-1.96.01l.562-.505c.924-.833 2.034-1.649 2.752-2.682.063.136.133.27.206.399.46.812.99 1.586 1.463 2.391.11.187.22.376.328.566z" fill="#00CBFF" data-color="1"></path>
        <path d="M157.094 92.345a175.02 175.02 0 0 1-1.31-3.901l-.168-.527-.472.293c-3.262 2.022-7.54 3.125-12.717 3.279-2.493.075-5.04-.05-7.568-.368-.733-.092-1.47-.248-2.184-.398a40.279 40.279 0 0 0-1.487-.294c-.389-.067-.781-.123-1.173-.179-.271-.039-.54-.077-.81-.119l-.291-.041c-.355-.047-.69-.092-.937-.245l-.239-.108-.411-.391-.31.408a117.942 117.942 0 0 1-2.742 3.471c-2.833 3.444-5.943 6.615-8.886 9.568l-.223.223c-2.874 2.882-5.846 5.863-7.633 9.549-1.996 4.116-2.762 8.669-2.102 12.492l.066.381.389-.025c1.241-.081 2.483-.158 3.724-.236 1.243-.077 2.485-.154 3.728-.236 7.566-.495 16.334-1.202 24.64-3.336 4.099-1.053 7.705-2.338 11.025-3.929.545-.261 1.09-.531 1.632-.811l.414-.235-.24-.393c.483-4.21 1.249-7.97 2.343-11.493a62.716 62.716 0 0 1 3.171-8.151c.086-.181.171-.368.257-.557.286-.629.582-1.279.969-1.799l.134-.18-.589-1.712z" fill="#00CBFF" data-color="1"></path>
        <path d="M97.968 94.496c.018.002.035.01.054.012-.086.085-.182.073-.253-.023l-.001-.005c.065.004.131.009.2.016z" fill="#000010" data-color="3"></path>
        <path d="M82.831 112.371c-.207.077-.411.167-.615.243a56.258 56.258 0 0 1-2.231.774 12.33 12.33 0 0 1 1.182-2.714c.555.566 1.108 1.132 1.664 1.697z" fill="#000010" data-color="3"></path>
        <path d="M93.915 104.872c.222.109.447.213.669.322-.581.407-1.115.898-1.659 1.362.278-.459.579-.9.836-1.374.055-.101.101-.208.154-.31z" fill="#000010" data-color="3"></path>
        <path d="M90.093 105.911a21.6 21.6 0 0 0-.465-2.456c.491.109 1.012.122 1.502.259.03.008.058.024.088.033-.053.118-.098.241-.152.358a16.993 16.993 0 0 1-.973 1.806z" fill="#000010" data-color="3"></path>
        <path d="M99.714 118.06c.347-.642.737-1.262 1.163-1.853a.524.524 0 0 1 .524-.225 36.23 36.23 0 0 1 1.828-1.924c1.104-2.418 2.285-4.785 3.49-7.152.581-1.536 1.169-3.217 2.307-4.43.227-.242.619.027.532.311l.004-.001-.028.064c-.001.002-.001.005-.003.007.424-.55.879-1.068 1.329-1.546 2.014-2.141 4.29-4.025 6.326-6.151a.181.181 0 0 1 .087-.05 24.795 24.795 0 0 0 1.528-2.792c.214-.458.886-.122.786.33a23.638 23.638 0 0 1-1.341 4.233l-.119.275a.218.218 0 0 1 .021.167c-.183.713-.279 1.42-.371 2.127-.523.535-1.037 1.08-1.563 1.612.233-.818.489-1.625.807-2.4a2.24 2.24 0 0 1-.317.162.323.323 0 0 1-.278-.022c-1.171 1.086-2.457 2.094-3.535 3.223a45.847 45.847 0 0 0-4.438 5.45c-.025.072-.052.139-.076.212a.417.417 0 0 1-.257.263c-.062.091-.129.18-.19.272a45.49 45.49 0 0 0-3.674 6.624c-.479 1.065-.849 2.214-1.233 3.357a26.968 26.968 0 0 1-1.74 7.117c-.387.031-.774.054-1.16.087-1.233.104-2.46.255-3.689.388.132-1.159.292-2.315.742-3.394.619-1.481 1.508-2.951 2.538-4.341z" fill="#000010" data-color="3"></path>
        <path d="M99.156 88.608c.084-.145.171-.29.26-.433a.275.275 0 0 1 .1-.162c.273-.427.588-.836.899-1.247.304.476.552.983.823 1.478-.09.083-.184.163-.27.25-.775.786-1.266 1.687-1.766 2.586-.35-.078-.699-.161-1.054-.217.142-.439.305-.87.5-1.286.128-.327.301-.651.508-.969z" fill="#000010" data-color="3"></path>
        <path d="M146.625 75.113c.572.068 1.138.269 1.697.514-.078.022-.154.052-.232.074-.322.089-.651.148-.975.23a6.4 6.4 0 0 1-.594-.568c-.074-.084-.033-.266.104-.25z" fill="#000010" data-color="3"></path>
        <path d="M153.197 73.431l.117.067c-.063.061-.144.099-.211.155a.438.438 0 0 1-.025-.02c-.118-.087-.015-.28.119-.202z" fill="#000010" data-color="3"></path>
        <path d="M141.997 67.599c-.146-.327.204-.591.486-.373.741.576 1.383 1.239 2.06 1.873 1.995 1.123 3.908 2.404 5.93 3.492.782.421 1.566.841 2.344 1.271-.468.318-.97.579-1.5.778-1.176-.741-2.396-1.421-3.555-2.131-1.928-1.18-4.807-2.758-5.765-4.91z" fill="#000010" data-color="3"></path>
        <path d="M81.367 102.987c.808.032 1.62.029 2.425.104.024.002.053.01.077.013-.459.68-.921 1.36-1.378 2.041-.918-.793-1.878-1.536-2.906-2.164.049-.048.095-.099.145-.147.544.074 1.09.132 1.637.153z" fill="#000010" data-color="3"></path>
        <path d="M85.818 104.516c.301.913.552 1.845.691 2.797.099.682.035 1.426.142 2.115-.229-.283-.464-.559-.693-.83a30.387 30.387 0 0 0-2.087-2.234l-.025-.022a46.132 46.132 0 0 0 1.582-2.886c.138.351.272.702.39 1.06z" fill="#000010" data-color="3"></path>
        <path d="M83.299 99.197c.11.188.22.378.328.567-.314-.028-.63-.027-.881-.044-.275-.019-.551-.029-.827-.045.294-.42.605-.829.914-1.24.158.253.315.506.466.762z" fill="#000010" data-color="3"></path>
        <path d="M107.559 116.022c.505-1.248 1.346-2.362 2.066-3.496.564-.889 1.117-1.846 1.814-2.655.229-.706.461-1.415.729-2.12.08-.211.427-.199.42.056-.075 2.491-1.129 5.101-2.344 7.256-.931 1.652-2.521 4.029-4.446 4.781a21.59 21.59 0 0 1 .332-1.901c.435-.643.963-1.265 1.416-1.851.003-.023.003-.046.013-.07z" fill="#000010" data-color="3"></path>
        <path d="M108.706 121.402c1.815-2.111 3.128-4.495 4.064-7.108.858-2.397 1.434-4.878 2.039-7.347.308-1.257.576-2.555.877-3.845a.065.065 0 0 0 .008-.009c.651-.654 1.284-1.323 1.93-1.981-.128 2.333.026 4.663.046 7.062.001.122-.001.245-.001.368.088-.544.217-1.059.464-1.446.062-.096.189-.161.304-.123.163.054.16.064.208.239a.038.038 0 0 1-.017.042l-.008.005c.07.155-.011.902-.024 1.024-.08.792-.227 1.579-.394 2.357-.193.899-.423 1.809-.737 2.685-.179 1.85-.489 3.686-1.001 5.475a22.016 22.016 0 0 1-2.503 5.663c-.218.015-.436.034-.654.048-2.483.162-4.968.308-7.451.471-.037-.213-.05-.432-.078-.647.996-.962 2.035-1.894 2.928-2.933z" fill="#000010" data-color="3"></path>
        <path d="M141.12 115.449c.803-1.809 2.289-4.131 3.906-5.377a.234.234 0 0 0 .004-.026c.015-.069.091-.107.157-.096.013-.01.026-.021.04-.03.071-.05.159.018.161.095.761.273 1.229.899 1.822 1.479.808.79 1.684 1.556 2.373 2.456.35.457.634.955.9 1.464-.032.259-.074.516-.104.775a.448.448 0 0 0 .058.296c-.539.277-1.08.546-1.622.805-.54.259-1.091.489-1.64.728-.521-.787-.95-1.612-1.231-2.475-.612 1.183-1.432 2.291-2.158 3.362-.134.198-.272.413-.407.62a64.928 64.928 0 0 1-4.05 1.257c.269-.678.534-1.358.735-2.069.311-1.102.589-2.213 1.056-3.264z" fill="#000010" data-color="3"></path>
        <path d="M145.18 101.891c-.113.787-.37 1.563-.657 2.288-.279.704-.598 1.686-1.191 2.25-.442 1.669-1.557 3.387-2.828 4.426a.49.49 0 0 1-.176.096c-.162.258-.331.507-.505.747a.6.6 0 0 1 .075.113c.182.373-.128.633-.416.834-.174.121-.46-.038-.44-.251.018-.193.027-.3.075-.385a.21.21 0 0 1-.023-.203 25.604 25.604 0 0 1 1.798-3.502.404.404 0 0 1 .04-.277c.709-1.417 1.251-2.976 1.378-4.569-.177-.754-.113-1.594-.009-2.38a8.885 8.885 0 0 1 .08-1.495c.134-.882.58-3.49 1.699-4.078.058-.203.324-.295.48-.119.039 0 .078.002.117.006.075.009.126.115.043.157-.014.007-.027.018-.041.025.438.741.774 1.543 1.148 2.32.288.399.588.791.912 1.163.47.541 1.047 1.029 1.537 1.57.024.01.048.022.072.038 1.58 1.062 3.057 2.302 4.533 3.524-.045.143-.099.283-.143.426a55.85 55.85 0 0 0-.968 3.594c-1.356-1.139-2.722-2.269-4.033-3.455-.89-.803-1.927-1.756-2.557-2.863z" fill="#000010" data-color="3"></path>
        <path d="M148.428 93.914c-.099.055-.221.057-.347-.037a47.365 47.365 0 0 1-2.665-2.17 28.988 28.988 0 0 0 4.944-.96c.455.148.887.361 1.26.735.59.191 1.135.495 1.531 1.007.776 1.002 1.039 2.483 1.681 3.612.222.39.493.738.746 1.102-.282.619-.567 1.238-.829 1.866-.133.32-.249.648-.378.97a43.835 43.835 0 0 1-5.943-6.125z" fill="#000010" data-color="3"></path>
        <path d="M121.301 122.775a44.29 44.29 0 0 0-1.897 1.287c2-.169 3.997-.371 5.988-.612.275-.316.529-.652.828-.947.421-.369.833-.745 1.229-1.137l.001-.001a41.82 41.82 0 0 0 2.354-2.221c1.719-.85 2.94-2.584 3.596-4.346.936-2.511.238-4.969-.021-7.507-.002-.039-.002-.079-.005-.119a16.777 16.777 0 0 0 1.805-2.221c2.539-.883 3.264-5.158 3.375-7.361.097-1.909-.086-3.817-.103-5.727a50.117 50.117 0 0 1-3.649-.32c-1.127-.142-2.217-.412-3.327-.622-2.286.675-4.503 2.248-6.336 3.622-1.841 1.379-4.024 3.022-5.02 5.155-1.002 2.146-.344 4.467.293 6.611.977 3.29 1.427 6.377-.882 9.264-.147.183-.124.386-.018.52-.863 1.057-1.507 2.196-1.224 3.687.043.226.396.214.447 0 .515-2.149 1.597-3.489 3.044-5.111.708-.794 1.362-1.647 1.544-2.718.099-.582.048-1.158-.075-1.723a5.444 5.444 0 0 0-.24-1.496c-.404-1.285-1.231-2.226-.784-3.689.623-2.037 2.517-3.16 3.936-4.641a.465.465 0 0 0 .228-.033 9.93 9.93 0 0 0-.199 2.966v.003c-.044.258-.08.514-.102.766-.018.215.119.351.29.402.206.932.528 1.835.847 2.74.065.184.126.37.185.556.138.579.306 1.149.503 1.703l.072.245c-.651.925-1.198 1.932-1.754 2.908-.794 1.396-1.896 2.903-2.206 4.49a.23.23 0 0 0 .088.227c-.371.714-.738 1.431-1.097 2.154-.521 1.049-.993 2.134-1.632 3.12-.022.047-.053.084-.082.126zm8.693-25.184a30.156 30.156 0 0 0 3.512-3.653c.305-.377.613-.77.918-1.174l-.029.16c-.284 1.564-.298 3.158-.508 4.731-.24 1.795-.825 3.458-1.848 4.964-.896 1.319-2.59 2.369-3.214 3.796a.355.355 0 0 0 .008.301l-.023.04c-.075.138-.16.284-.242.435-.49-3.369-.732-6.738 1.426-9.6z" fill="#000010" data-color="3"></path>
        <path d="M155.372 88.573c.268.84.562 1.672.847 2.508-.661-.627-1.318-1.254-1.984-1.876.385-.201.769-.404 1.137-.632z" fill="#000010" data-color="3"></path>
        <path d="M142.214 90.871c-2.436.032-4.87-.206-7.286-.498-1.273-.154-2.567-.186-3.83-.397-.572-.096-1.141-.216-1.711-.325-.526-.1-1.14-.316-1.658-.127a115.353 115.353 0 0 0 2.748-3.812c.237-.281.472-.564.69-.863.199-.272.387-.552.571-.834.189.079.405.122.619.182.45.125.904.237 1.36.334a24.09 24.09 0 0 0 2.916.432c2.02.178 4.055.123 6.07-.091a49.174 49.174 0 0 0 5.978-1.034 67.189 67.189 0 0 0 2.997-.774c.627-.177 1.482-.296 2.114-.626.332 1.862.818 3.685 1.377 5.491-4.087 1.934-8.424 2.882-12.955 2.942z" fill="#FFF171" data-color="2"></path>
        <path d="M159.85 109.707c-.429.462-.879.903-1.341 1.333-2.078 1.938-4.519 3.534-7.047 4.902.428-3.744 1.242-7.429 2.326-11.038a63.192 63.192 0 0 1 3.053-8.101c.234-.516.531-1.035.781-1.563l.215.654c.732 2.265 1.391 4.561 1.786 6.911.202 1.205.327 2.423.352 3.645.023 1.088-.141 2.174-.125 3.257z" fill="#FF3998" data-color="4"></path>
        <path d="M124.137 59.727c-1.378-.836-3.011-1.809-4.678-2.683-.514-.269-.981-.446-1.429-.54l-.238-.05-.166.177a35.1 35.1 0 0 1-1.521 1.494c-.424.401-.849.801-1.257 1.218a38.197 38.197 0 0 0-3.041 3.508c-.81 1.06-1.607 2.269-2.436 3.696l-.128.219c-.355.606-.722 1.233-.97 1.909a4.046 4.046 0 0 0-.249.997l-.009.1.036.093c.043.113.078.23.112.347.076.257.162.548.337.823.353.551.868.993 1.573 1.351.351.178.712.317 1.061.453.218.084.435.168.672.271.176.077.374.161.547.273l.369.238.233-.371c.187-.299.44-.593.685-.878.137-.159.269-.313.386-.463l1.72-2.189c.841-1.072 1.666-2.156 2.491-3.24l1.447-1.902c.727-.966 1.478-1.964 2.37-2.765.737-.661 1.411-1.103 2.004-1.316l.846-.303-.767-.467z" fill="#FFF171" data-color="2"></path>
        <path d="M163.421 117.947a28.958 28.958 0 0 0-.527-3.538l-.052-.236c-.18-.826-.382-1.75-.787-2.582.161-.907.053-1.785-.317-2.563a1.092 1.092 0 0 0-.079-.236c.106-.936.07-1.894.038-2.749a28.279 28.279 0 0 0-.436-3.911c-.623-3.514-1.795-6.914-2.928-10.201-.435-1.262-.87-2.524-1.274-3.791-.584-1.83-1.304-4.255-1.696-6.781a24.885 24.885 0 0 1-.292-3.522c-.009-.83.068-1.642.149-2.502.025-.263.05-.526.072-.79.288-.364.526-.764.709-1.194.481-1.129.617-2.346.726-3.324.142-1.267.232-2.525.268-3.737l.016-.4c.068-1.506.181-4-1.544-4.839-.561-.498-1.305-.741-2.024-.946a45.629 45.629 0 0 0-3.27-.803 49.01 49.01 0 0 0-17.94-.33c-.989.163-1.984.359-2.957.582-.173.04-.354.077-.537.115-.507.105-1.067.221-1.6.41-.312-.214-.624-.428-.938-.639l-.106-.072c-1.982-1.336-4.032-2.718-6.223-3.752-1.188-.561-2.623-.753-3.798-.515a1.186 1.186 0 0 0-.652.097c-1.911.873-3.39 2.603-4.696 4.132l-.204.239c-2.472 2.884-4.536 6.099-6.532 9.206-1.812 2.823-3.685 5.739-5.842 8.366-1.018.301-2.1 1.003-2.765 1.807-.702.851-.908 1.845-.973 2.827a7.357 7.357 0 0 0-2.604 2.435 1.386 1.386 0 0 0-.135.015c-.656.098-1.333.412-2.009.935-.647.5-1.711 1.598-1.973 2.786-.119.093-.23.188-.333.275l-.216.181c-.208.17-.422.331-.635.492-.247.187-.494.374-.733.571l-.009.008c-.659.218-1.213.687-1.587 1.039-.309.29-.674.655-.975 1.075-.778.039-1.568.448-1.865.647-.672.449-1.117 1.129-1.288 1.964a4.812 4.812 0 0 0-.116.975c-.374.264-.677.568-.955.847-.099.1-.197.199-.297.293-.493.47-.982.942-1.467 1.42l-2.255 2.224a4.217 4.217 0 0 0-.215.236l-.002.002c-.733.046-1.555.389-2.452 1.023-.779.55-1.31 1.128-1.609 1.757-.932.161-1.812.55-2.602.899l-.08.035c-.7.307-1.377.648-1.952.942-1.278.479-2.555.959-3.83 1.446l-2.271.862c-1.848.7-3.758 1.423-5.627 2.169-2.195.876-4.748 1.978-7.042 3.505-2.166 1.442-3.909 3.135-5.182 5.03-.257.382-.498.784-.718 1.199a8.108 8.108 0 0 0-2.527 1.904c-1.198 1.336-1.784 2.493-1.786 3.528-.278.692-.348 1.437-.409 2.102l-.032.334c-.096.945-.133 1.973-.117 3.238.013.966.064 2.015.156 3.209.039.496.083.992.129 1.487l.021.271c.032.457.067.974.357 1.485.158.278.412.471.704.552.476.591.985 1.101 1.58 1.583 5.174 4.198 12.324 6.242 21.839 6.243.23 0 .462-.001.695-.004 7.597-.079 15.175-1.37 22.504-2.619 1.847-.315 3.692-.63 5.538-.925 4.722-.757 9.16-1.287 13.567-1.622 3.566-.27 7.202-.453 10.719-.63l2.409-.122c8.801-.454 17.404-1.042 25.889-3.231 4.229-1.09 8.245-2.572 11.938-4.405 1.471-.73 3.385-1.737 5.144-3.052.955-.713 2.149-1.709 2.916-3.092.605-.877.697-2.174.772-3.217l.031-.415c.113-1.352.116-2.569.008-3.717zm-5.584-22.053c.732 2.265 1.391 4.561 1.786 6.911.202 1.205.327 2.423.352 3.645.022 1.088-.141 2.174-.126 3.258-.429.462-.879.903-1.341 1.333-2.079 1.938-4.52 3.534-7.047 4.902.428-3.744 1.242-7.43 2.326-11.038a63.192 63.192 0 0 1 3.053-8.101c.234-.516.531-1.035.781-1.563.074.217.145.435.216.653zm-2.465-7.321c.577 1.812 1.214 3.609 1.827 5.408-.534.717-.888 1.628-1.269 2.427a62.899 62.899 0 0 0-3.192 8.208c-1.169 3.768-1.911 7.656-2.36 11.571a.448.448 0 0 0 .058.296c-.539.277-1.081.546-1.622.805-3.498 1.676-7.189 2.935-10.946 3.9-8.034 2.064-16.305 2.783-24.561 3.323-2.483.163-4.968.308-7.451.471-.701-4.055.288-8.57 2.064-12.233 1.803-3.717 4.886-6.759 7.774-9.657 3.087-3.097 6.134-6.22 8.912-9.598a116.91 116.91 0 0 0 2.753-3.484.2.2 0 0 0 .056.043l.256.128c.025.013.051.02.077.025.406.251.911.271 1.389.346.658.104 1.32.184 1.976.297 1.239.214 2.441.537 3.692.695a49.32 49.32 0 0 0 7.635.372c4.424-.131 9.124-.982 12.932-3.343zm-.202-.644c-4.088 1.934-8.425 2.882-12.956 2.942-2.436.032-4.87-.206-7.286-.498-1.273-.154-2.567-.186-3.831-.397-.572-.096-1.141-.216-1.711-.325-.526-.1-1.14-.316-1.658-.127a115.353 115.353 0 0 0 2.748-3.812c.237-.281.472-.564.69-.863.199-.272.387-.552.571-.834.189.079.405.122.619.182.45.125.904.237 1.36.334a24.09 24.09 0 0 0 2.916.432c2.02.178 4.055.123 6.07-.091a49.174 49.174 0 0 0 5.978-1.034 67.189 67.189 0 0 0 2.997-.774c.627-.177 1.482-.296 2.114-.626.335 1.862.821 3.686 1.379 5.491zm-18.949-26.612a.923.923 0 0 0 .159-.107c.105-.085.204-.186.303-.289l.538-.522a50.055 50.055 0 0 1 4.043-.115c2.399.033 4.797.241 7.163.638l1.123.227c.06.151.124.301.195.451-1.524-.327-3.127-.38-4.666-.36-2.085.027-4.17.108-6.254.167-.9.025-1.8.032-2.7.05.032-.046.065-.092.096-.14zm.317 15.029l1.253-2.147-.22.377a15.66 15.66 0 0 0 1.944 2.499c.749-.038 1.5-.074 2.246-.154a38.31 38.31 0 0 0 3.643-.586c-.079-.062-.149-.138-.23-.198-1.748-1.568-3.708-2.912-5.412-4.542-1.229-1.175-2.125-2.541-3.128-3.882 2.201-.395 4.405-.777 6.618-1.102 1.848-.272 3.703-.473 5.556-.709.844-.107 1.689-.235 2.511-.458.253-.069.548-.148.838-.252l.23.289c.755.952 1.597 1.824 2.453 2.681l-.325 2.678c-.165.898-.41 1.85-1.043 2.543-.641.701-1.573 1.064-2.447 1.381a39.73 39.73 0 0 1-2.935.939 39.249 39.249 0 0 1-9.405 1.429c-.859.026-1.739-.046-2.602-.021.153-.255.306-.509.455-.765zm-.217-6.783c.512.324 1.004.677 1.481 1.05l.046.037-.046-.037a18.012 18.012 0 0 0-1.481-1.05zm2.279 1.82c.116.164.213.34.25.548.003.018-.004.036-.005.054.001-.018.008-.036.005-.054a1.332 1.332 0 0 0-.25-.548zm-3.293 7.059c1.313.25 2.76.132 4.09.067 1.327-.066 2.649-.2 3.964-.39a40.258 40.258 0 0 0 7.029-1.666c1.099-.368 2.217-.752 3.142-1.376-.391 2.15-.202 4.473.133 6.608-.733.034-1.547.392-2.214.559-.924.232-1.852.45-2.784.65-1.968.422-3.957.754-5.963.926-1.941.166-3.899.187-5.839-.007a25.66 25.66 0 0 1-2.826-.442 23.286 23.286 0 0 1-1.473-.366l-.169-.05c.451-.75.892-1.508 1.384-2.23a69.24 69.24 0 0 0 1.495-2.292c.011.003.02.007.031.009zm-.879-17.478l.235-.321a4.57 4.57 0 0 1 .116-.013c-.109.227-.218.454-.317.681l-.079.18c-.132.002-.265.006-.397.007.152-.174.305-.348.442-.534zm.512 7.051c-.124.203-.253.401-.381.598-.275-.13-.547-.265-.828-.381.403-.074.807-.144 1.209-.217zm-1.437 1.299c.154.064.301.145.453.214-1.276 1.779-2.752 3.328-4.567 4.817a87.025 87.025 0 0 0-1.877 1.573.488.488 0 0 0-.127.097 5.86 5.86 0 0 1-.075.08l-.009.008c.119-.307.213-.616.266-.924.015-.087-.082-.201-.173-.132-.752.571-1.224 1.367-1.774 2.124a38.707 38.707 0 0 1-2.615 3.241 40.118 40.118 0 0 1-2.639 2.659c-.074.068-.15.134-.227.201.118-.199.233-.399.343-.603.103-.192-.128-.336-.283-.217-1.359 1.044-2.476 2.384-3.581 3.701-.61-.524-1.429-.776-2.168-.326-.003.001-.004.004-.006.005-.185-.129-.362-.247-.518-.355a16.21 16.21 0 0 0-1.362-.849c.011-.013.022-.025.031-.04.189-.29.456-.614.643-.958.419-.428.734-.969 1.082-1.45.37-.511.743-1.02 1.121-1.526a93.597 93.597 0 0 1 2.46-3.155 116.54 116.54 0 0 1 4.582-5.276c1.317-1.428 2.747-3.013 4.626-3.695 2.072-.751 4.445-.031 6.394.786zm-23.188 25.467l-.1.129c-.708-.525-1.587-.811-2.293-.175l-.01.01-.219-.12c.125-.553.003-1.164-.173-1.752.177-.174.292-.407.451-.651.267-.409.537-.816.809-1.221.295-.439.592-.876.884-1.317.191-.288.396-.554.531-.859.572.321 1.141.646 1.735.927.109.464.421.878.815 1.222-.819 1.137-1.71 2.429-2.43 3.807zm.822 1.053s0-.001 0 0c0-.001 0-.001 0 0zM98.69 99.221a20.366 20.366 0 0 0-.479-3.105 23.244 23.244 0 0 0-.444-1.636c.066.004.132.009.201.016.45.048.894.159 1.323.298.82.267 1.578.675 2.338 1.074.552.29 1.099.597 1.649.898-.902.727-1.676 1.625-2.512 2.421a59.05 59.05 0 0 1-1.499 1.374c-.179.159-.369.306-.545.463.048-.591.013-1.193-.032-1.803zm-.249 3.102a.512.512 0 0 0 .271.023c.58-.12 1.022-.678 1.442-1.07.465-.436.923-.88 1.372-1.332.86-.865 1.814-1.754 2.45-2.803.402.21.807.411 1.22.595-.126.902.246 1.68.895 2.219-.138.159-.268.325-.407.483a195.106 195.106 0 0 1-3.455 3.821c-.175.189-.367.379-.555.568a2.446 2.446 0 0 0-.201-.811c-.434-.974-1.512-1.679-2.519-1.237-.128-.1-.255-.19-.37-.268l-.173-.115a.932.932 0 0 0 .03-.073zm7.602-13.66a40.702 40.702 0 0 0-.71-1.58c.594.093 1.188.179 1.776.354a12.9 12.9 0 0 1 2.325.97c-.589.539-1.027 1.38-1.446 1.993-.289.423-.575.849-.858 1.277a33.82 33.82 0 0 0-1.087-3.014zm4.636-9.799c.794-.78 1.669-1.464 2.537-2.153 1.305-.636 2.563-1.379 3.824-2.086 1.282-.717 2.832-1.405 3.956-2.426a119.509 119.509 0 0 0-4.402 5.163 168.63 168.63 0 0 0-2.289 2.903c-.722.941-1.653 1.917-2.105 3.017a.448.448 0 0 0-.033.23l-.134.149c-.095.107-.311.293-.409.482a15.839 15.839 0 0 0-4.429-1.366c1.126-1.336 2.234-2.687 3.484-3.913zm-.674-2.101c.612-.884 1.249-1.756 1.889-2.626.13.045.261.084.39.109a.46.46 0 0 0 .112.186 90.642 90.642 0 0 0-2.391 2.331zm19.157-11.964c.203-.087.633-.349.945-.534.22.337.404.701.527 1.058.111.322.068.663-.094.96-.099.181-.343.553-.501.69-.061.053-.051.179.028.213l.009.004c-1.222-.161-2.457-.091-3.631.393-1.876.773-3.314 2.263-4.66 3.734.859-1.243 1.192-2.746 2.328-3.879 1.437-1.433 3.238-1.866 5.049-2.639zm-3.134-3.221c-1.056 1.104-1.921 2.686-2.766 3.916-2.133 3.104-5.616 4.815-8.602 7.023l1.441-1.949c1.004-1.358 2.032-2.698 3.053-4.044.919-1.211 1.794-2.48 2.847-3.581.474-.496.982-.965 1.573-1.321.451-.272.955-.389 1.425-.597.334.209.679.387 1.029.553zm-8.698-4.463l-.001.001.001-.001zm.611.071c.454.095.89.276 1.316.5 1.581.828 3.128 1.743 4.654 2.669-.81.29-1.581.894-2.146 1.401-1.116 1.001-1.987 2.26-2.893 3.443-1.153 1.508-2.295 3.025-3.467 4.519l-1.719 2.189c-.332.423-.787.881-1.098 1.378-.201-.129-.43-.228-.633-.316-.559-.244-1.142-.427-1.687-.703-.561-.284-1.063-.665-1.406-1.199-.218-.34-.272-.733-.41-1.092.028-.304.119-.604.224-.889.265-.72.682-1.398 1.067-2.061.731-1.259 1.521-2.494 2.406-3.651a37.399 37.399 0 0 1 3.007-3.468c.909-.928 1.898-1.775 2.785-2.72zm-16.867 19.981a42.8 42.8 0 0 0 1.865-2.443c2.186-3.073 4.019-6.373 6.064-9.537a49.884 49.884 0 0 1 2.983-4.172 64.006 64.006 0 0 0 2.25-1.475c.268-.186.533-.39.799-.587-.249.232-.493.468-.735.703a34.869 34.869 0 0 0-3.267 3.68c-1.027 1.332-1.984 2.697-2.818 4.158-.498.872-1.663 3.174-.467 3.924.307.57.805 1.093 1.17 1.362.019.014.039.024.058.037-.92 1.732-1.553 3.601-2.341 5.392-.475 1.08-1.028 2.112-1.596 3.136-.341.415-.703.824-1.063 1.233-.366.009-.726.054-1.003.281a32.638 32.638 0 0 0-1.722-2.393c-.477-.603-1.004-1.213-1.673-1.609.56-.502 1.038-1.134 1.496-1.69zM96.345 82.6c.074-.085.149-.169.221-.256.043-.052.087-.115.133-.178.18.224.366.436.542.631a2.527 2.527 0 0 0-.944-.078.592.592 0 0 0 .048-.119zm-2.971 3.145c.567.151 1.27-.023 1.852-.002.716.026 1.424.127 2.125.272.714.148 1.417.344 2.127.51.277.065.588.147.888.152a27.018 27.018 0 0 1 1.586 2.848c.296.61.554 1.234.802 1.864.125.319.225.705.427.995-1.02-.441-2.06-.836-3.134-1.13a17.2 17.2 0 0 0-2.191-.451c-.514-.071-1.094-.205-1.605-.079a24.88 24.88 0 0 0-.313-.607c-.204-.381-.43-.812-.678-1.25.067-.245.132-.488.207-.744.042-.086.083-.174.127-.257.352-.674.758-1.303 1.173-1.926a12.271 12.271 0 0 0-1.35-.173c-.139.147-.294.276-.425.431-.332.273-.661.555-.992.833a4.661 4.661 0 0 0-1.047-.909c.146-.113.29-.24.421-.377zm-3.063 27.724zm-.502 1.525zm.446-1.96l.006.03-.006-.03zm-.624-1.152c-.027.048-.048.099-.074.148a1.011 1.011 0 0 0-.296-.117 7.738 7.738 0 0 0 .714-1.97.439.439 0 0 0 .178-.036 6.558 6.558 0 0 0 1.091-.609h-.001c-.549.853-1.106 1.699-1.612 2.584zm3.381-14.85c.138-.458.248-.929.366-1.397-.121-.36-.206-.732-.344-1.085a28.271 28.271 0 0 1 1.015 3.202c.233.895.376 1.856.784 2.687a17.156 17.156 0 0 0-2.22-.795c.195-.849.351-1.706.403-2.574.002-.014-.003-.025-.004-.038zm2.768 8.723c-.1-.044-.199-.087-.297-.132.098.045.198.089.297.132zM92.862 94.13c.031.073.06.147.09.22-.03-.073-.059-.147-.09-.22zm-.059 10.205c.601.271 1.189.568 1.781.859-.754.528-1.424 1.219-2.147 1.775-.72.555-1.547 1.045-2.263 1.626.006-.076.012-.151.016-.227.093-1.653-.17-3.306-.564-4.915.491.109 1.012.122 1.502.259.575.161 1.132.379 1.675.623zm-3.808-14.606c.217-.174.461-.349.674-.548.226.275.454.545.679.816a7.816 7.816 0 0 0-.842-.134 7.589 7.589 0 0 0-.659-.017l.148-.117zm-.733 9.484c.376-.06.775-.048 1.147-.046a11.47 11.47 0 0 1 1.869.165l.007.001-.007-.001a11.47 11.47 0 0 0-1.869-.165c-.372-.002-.771-.014-1.147.046l-.002-.003.002.003zm-.237-2.251a13.22 13.22 0 0 0-.305 1.077c-.059-.118-.126-.232-.188-.349l.493-.728zm-.825.109l.001.002-.001-.002c-.011-.019-.025-.037-.036-.056.012.019.025.037.036.056zm.233 19.449c-.296.708-.598 1.417-.884 2.121a8.738 8.738 0 0 1-.351.765 2.168 2.168 0 0 0-.401.628.493.493 0 0 0-.029.087c-.213.309-.453.608-.747.948-.222.255-.568.532-.67.861-.092.299.329.504.512.292.45-.351.88-.895 1.276-1.469.133.034.279 0 .404-.147 2.643-3.099 4.799-6.412 6.681-9.993a.34.34 0 0 0 .249.022c.908-.317 1.155-1.294 1.525-2.12.317-.708.57-1.44.834-2.169.157.808.696 1.5 1.529 1.807.305.112.621.161.938.16-.044.05-.095.091-.138.141-2.082 2.468-4.5 6.064-4.694 9.45a6.388 6.388 0 0 0-.202.838.2.2 0 0 0 .059.184c-.062.149-.125.298-.192.446-.547 1.215-1.311 2.309-1.775 3.559-.094.253.247.39.418.242 1.206-1.041 2.179-2.751 2.757-4.511.862-.615 1.331-1.69 1.745-2.639.625-1.432 1.261-2.797 2.145-4.093 1.675-1.099 3.125-2.818 4.558-4.127 1.494-1.367 2.996-2.722 4.228-4.335.726-.95 1.365-1.96 1.98-2.984a3.458 3.458 0 0 0 1.445-.932c.73-.806 1.148-1.989.833-3.024.272-.481.547-.961.812-1.446.579-.636 1.135-1.296 1.734-1.903.445-.45.919-.865 1.396-1.276a2.582 2.582 0 0 0 1.95-1.425c.018-.035.029-.073.045-.109.145-.1.277-.215.426-.311 2.461-1.585 5.129-2.777 7.416-4.628.177-.143-.051-.41-.236-.305-.925.524-1.88 1.03-2.843 1.537a34.367 34.367 0 0 0 2.782-2.266c1.777-1.086 3.544-2.188 5.236-3.404 1.642-1.18 3.43-2.521 4.775-4.145-.255.468-.512.935-.781 1.39a107.393 107.393 0 0 1-3.954 6.206c-2.523 3.678-5.301 7.173-8.243 10.528-2.916 3.325-6.121 6.356-9.164 9.561-2.78 2.928-5.265 6.039-6.622 9.875-1.188 3.359-1.865 7.089-1.313 10.642-1.588.107-3.176.223-4.762.358-4.349.368-8.673.927-12.987 1.579-2.498.377-4.998.792-7.501 1.196.011-.036.032-.068.043-.105.136.029.296-.021.36-.184 1.146-2.968 2.133-6.165 2.187-9.369.001-.054-.079-.063-.093-.012.166-1.189 1.168-2.423 1.728-3.373.127-.215.251-.43.377-.645.37 1.403 1.796 2.199 3.199 2.026zm-7.838 11.666c-2.641.426-5.286.839-7.937 1.183-.02-.104-.032-.217-.051-.323.964-.627 1.483-2.126 1.797-3.284.33-.504.646-1.018.996-1.51.327-.459.729-.93 1.141-1.411.179-2.33.46-4.668.868-6.981-.354.173-.689.373-1.02.582-.551.347-1.078.729-1.534 1.21l-.038.044c.013-.014.024-.03.038-.044 1.362-1.433 3.236-2.177 5.076-2.8.255-.086.512-.17.768-.254-.023.135-.075.246-.092.386-.524 4.346-.457 9.279-1.989 13.499.657-.104 1.318-.191 1.977-.297zm4.547-14.373l-.001-.01.001.01zm.574-19.922c.575.108 1.247-.244 1.816-.315.147-.018.297-.015.446-.024-.439.461-.868.931-1.292 1.405l-.027-.034a10.703 10.703 0 0 0-.95-.988.982.982 0 0 0 .007-.044zm.666 9.441c.157.39.304.784.436 1.184.301.913.553 1.845.691 2.797.099.682.035 1.426.142 2.115-.229-.283-.464-.559-.693-.829a30.387 30.387 0 0 0-2.087-2.234c-1.371-1.323-2.895-2.597-4.551-3.568.675.118 1.363.164 2.048.191.808.032 1.62.029 2.425.104.488.044 1.062.232 1.589.24zm-6.504-4.242c.924-.833 2.034-1.649 2.752-2.682.063.136.133.27.206.399.46.812.99 1.586 1.463 2.391.11.188.22.378.328.568-.314-.028-.63-.027-.881-.044a84.926 84.926 0 0 0-2.47-.135c-.581-.023-1.277-.052-1.96.01l.562-.507zm-14.348 8.533c1.296-.498 2.588-1.007 3.882-1.51l-.01.004c.679.673 1.376 1.327 2.124 1.919a.399.399 0 0 0 .13.298c1.199 1.098 2.553-1.063 3.511-3.08-.789-.228-1.567-.277-2.386-.375.898.108 1.746.13 2.614.425.783.266 1.515.666 2.197 1.129 1.403.952 2.573 2.206 3.757 3.405.83.842 1.654 1.691 2.485 2.534-.207.077-.411.167-.616.243-.495.183-.993.359-1.493.529-1.002.341-2.018.642-3.013 1.003-.349.126-.694.265-1.035.41.045-.227.095-.454.143-.681.154-.25.296-.509.453-.756.82-1.294 1.677-2.561 2.516-3.842-.975-.994-1.967-1.982-3.113-2.776-1.032 1.488-1.943 3.057-2.653 4.722-.911 2.137-1.423 4.4-1.744 6.695l-.073.105a8.917 8.917 0 0 0-.472-.986c-1.55-2.948-3.966-5.156-6.426-7.497-.552-.525-1.119-1.026-1.682-1.534.299-.132.605-.245.904-.384zm-6.092 2.353c1.934 1.612 3.802 3.297 5.499 5.159 1.214 1.332 2.236 2.738 3.182 4.18.748-.045 1.497-.078 2.241-.184a29.17 29.17 0 0 1-3.275.269 36.875 36.875 0 0 1-6.582-.375c.704.105 1.413.154 2.121.216a34.263 34.263 0 0 0-2.772-2.893 62.39 62.39 0 0 1-.457-.425 53.204 53.204 0 0 0-3.489-4.498l3.532-1.449zm-1.624 8.454c-.182-.054-.364-.107-.544-.167-.027-.263-.04-.525-.093-.791.201.325.416.644.637.958zm-5.441-5.554c.001-.001.001 0 0 0-.134.072-.265.151-.398.225.134-.074.264-.153.398-.225zm-.465 1.766c.078.069.153.139.232.206.888.761 1.793 1.463 2.589 2.316-1.238-.701-2.322-1.623-3.158-2.816.117.093.219.203.337.294z" fill="#000010" data-color="3"></path>
        <path d="M109.475 95.546c.387.239.828.68 1.024 1.09.375.784-.101 1.814-.681 2.377-1.129 1.096-3.625.844-3.696-.904l.047.017c.089 1.019 1.935 1.017 2.609.735.761-.318 1.734-1.484 1.248-2.342-.052-.432-.546-.844-1.037-1.162.159.028.317.085.486.189z" fill="#FF3998" data-color="4"></path>
        <path d="M100.663 104.768c.149.792-.406 1.634-1.03 2.077-.672.477-1.704.662-2.365.065a1.418 1.418 0 0 1-.427-.705c.663.248 1.378.41 1.995.136.732-.325 1.301-1.299 1.259-2.091a.391.391 0 0 0-.237-.348 1.324 1.324 0 0 0-.136-.31c.459.26.836.618.941 1.176z" fill="#FF3998" data-color="4"></path>
        <path d="M87.846 115.376c-.789.313-1.71.086-2.221-.509.535.283 1.109.404 1.623.117.564-.059.907-.96 1.001-1.417.033-.16.051-.32.057-.479.132-.099.25-.148.381-.296.073-.082.139-.168.201-.257 1.132.8.027 2.417-1.042 2.841z" fill="#FF3998" data-color="4"></path>
        <path d="M115.065 86.302c.652.153 1.215.509 1.514 1.155.354.763.395 1.811.008 2.569-.618 1.208-1.807 1.102-2.737.492 1.279.087 2.487-1.272 2.168-2.515.062-.671-.399-1.236-.953-1.701z" fill="#FF3998" data-color="4"></path>
        <path d="M92.164 102.984c-.808-.296-1.914-.673-2.782-.474l-.083-.298a27.8 27.8 0 0 0-.683-2.107c.265-.019.532-.048.793-.047.514.002 1.025.043 1.534.105 1.063.13 2.106.391 3.116.744 1.034.362 2.03.82 2.985 1.355.804.45 1.911.949 2.299 1.833-.223.366-.289.822-.594 1.142-.385.404-.874.231-1.338.076-.936-.314-1.82-.749-2.703-1.185-.834-.411-1.67-.823-2.544-1.144z" fill="#FFFFFF" data-color="5"></path>
        <path d="M99.362 85.577a16.578 16.578 0 0 0-2.222-.604 12.877 12.877 0 0 0-2.152-.266c-.261-.007-.538-.018-.81-.002.379-.382.933-.67 1.356-.871.663-.314 1.539-.491 2.288-.398.654.728 1.288 1.463 1.867 2.251-.115-.038-.225-.074-.327-.11z" fill="#FFFFFF" data-color="5"></path>
        <path d="M99.349 93.793c-.524-.158-1.293-.387-1.916-.304a24.698 24.698 0 0 0-.717-1.781c.336.03.686.017 1.007.052.699.076 1.394.209 2.077.378 1.28.315 2.541.749 3.75 1.274 1.224.531 2.415 1.136 3.596 1.756.544.285 1.122.544 1.64.875.295.188.462.479.678.716-.301.517-.508 1.046-1.215 1.204-.679.152-1.216-.408-1.853-.295-1.409-1.127-3.086-1.987-4.667-2.839-.76-.411-1.551-.787-2.38-1.036z" fill="#FFFFFF" data-color="5"></path>
        <path d="M76.456 101.361a.931.931 0 0 1 .088-.21l.157-.142c.671-.16 1.295-.48 2.007-.55.682-.067 1.377-.038 2.061-.026.782.014 1.565.04 2.346.076.282.013.621.053.939.026.333.617.649 1.243.938 1.881-.294-.081-.602-.124-.867-.163-.805-.118-1.615-.151-2.427-.184-.877-.036-1.754-.084-2.61-.288-.623-.148-1.538-.586-2.068-.051l-.002.002a7.75 7.75 0 0 0-.545-.151.38.38 0 0 1-.017-.22z" fill="#FFFFFF" data-color="5"></path>
        <path d="M104.321 83.661c.599-.014 1.199.005 1.796.056 1.179.101 2.356.328 3.492.658a16.8 16.8 0 0 1 3.405 1.402c.963.531 1.935 1.115 2.601 1.989-.138.657-.512 1.368-1.157 1.619-.258.101-.693.061-1.022.142-.439-.332-1.05-.543-1.482-.786-.756-.426-1.494-.883-2.264-1.285-1.423-.742-3.237-1.463-4.894-1.456a35.484 35.484 0 0 0-1.307-2.331c.26.03.533-.001.832-.008z" fill="#FFFFFF" data-color="5"></path>
        <path d="M100.381 81.023a32 32 0 0 1 2.961 4.357c.858 1.506 1.58 3.072 2.259 4.664a49.563 49.563 0 0 1 1.064 2.756.742.742 0 0 0 .01.079.258.258 0 0 0 .056.122c.16.494.32 1.018.613 1.436a55.251 55.251 0 0 0-3.185-1.613l-.484-.22a.235.235 0 0 0 .032-.052c.207-.497-.115-1.198-.282-1.677-.2-.573-.424-1.138-.666-1.695a21.422 21.422 0 0 0-1.802-3.28 24.924 24.924 0 0 0-2.303-2.958c-.436-.482-.891-.954-1.267-1.485a4.382 4.382 0 0 1-.421-.785c.001-.011.003-.022.002-.034-.02-.761.821-1.285 1.51-1.139.811.171 1.409.917 1.903 1.524z" fill="#FFFFFF" data-color="5"></path>
        <path d="M79.826 107.767c-1.139-1.127-2.372-2.212-3.809-2.949-.93-.477-2.074-.92-3.183-.978.14-.189.294-.369.447-.548.165-.193.552-.447.744-.732.702-.057 1.424-.108 2.113.02.88.163 1.708.532 2.483.969 1.51.851 2.891 1.959 4.175 3.115 1.295 1.167 2.503 2.448 3.551 3.84.53.704 1.081 1.512 1.1 2.422.008.396-.083.781-.287 1.122-.079.131-.171.24-.236.359-1.418-.312-2.443-1.769-3.382-2.755-1.234-1.298-2.444-2.625-3.716-3.885z" fill="#FFFFFF" data-color="5"></path>
        <path d="M87.069 91.119c.743-.259 1.534-.316 2.316-.297.438.01 1.199.239 1.695.102.165.225.325.457.474.7.298.486.578.982.834 1.49-.513-.113-1.055-.166-1.529-.245a27.27 27.27 0 0 0-2.347-.317 10.27 10.27 0 0 0-2.44.07c-.256.041-.559.086-.842.172.127-.149.242-.281.296-.373.382-.646.819-1.049 1.543-1.302z" fill="#FFFFFF" data-color="5"></path>
        <path d="M94.841 97.327a29.402 29.402 0 0 0-.99-3.31c-.395-1.071-.859-2.132-1.464-3.103-.603-.969-1.331-2.042-2.223-2.769a.697.697 0 0 0-.095-.065c.253-.538.491-1.117 1.083-1.346.827-.32 1.607.363 2.109.938 1.12 1.283 1.962 2.921 2.664 4.46a22.91 22.91 0 0 1 2.007 7.841c.054.776.067 1.509.232 2.26a23.729 23.729 0 0 0-2.883-1.593c.15-1.095-.183-2.244-.44-3.313z" fill="#FFFFFF" data-color="5"></path>
        <path d="M88.548 111.784c-.098.177-.205.348-.31.521a4.517 4.517 0 0 0-.41-1.141 8.024 8.024 0 0 0-.645-1.042c.385-.616.342-1.343.307-2.052a14.893 14.893 0 0 0-.306-2.312c-.317-1.511-.883-2.96-1.541-4.354-.698-1.48-1.521-2.898-2.381-4.29-.387-.627-.949-1.345-.918-2.119.015-.389.186-.807.613-.876.168-.027.34.015.512.047.501.555 1.144 1.006 1.635 1.579.523.609.975 1.277 1.376 1.971a17.68 17.68 0 0 1 1.057 2.178c.316.774.585 1.568.822 2.37.525 1.776 1.031 3.657 1.07 5.515.02.934-.082 1.862-.358 2.757a6.5 6.5 0 0 1-.523 1.248z" fill="#FFFFFF" data-color="5"></path>
        <path d="M161.206 123.172c-.664 1.477-1.563 2.776-2.847 3.898-.14.122-.284.241-.428.359-2.373 1.629-5.113 2.825-7.721 3.902-3.873 1.6-7.922 2.747-12.03 3.572-8.315 1.672-16.826 2.061-25.276 2.512-4.263.228-8.527.447-12.778.848-4.462.421-8.891 1.091-13.31 1.828-9.024 1.506-18.096 3.232-27.289 2.972-3.812-.108-7.755-.512-11.402-1.677a24.814 24.814 0 0 1-5.103-2.268c-1.58-.938-2.964-2.131-4.379-3.288.042-.422-.06-.87-.101-1.286-.049-.49-.095-.981-.135-1.472a48.811 48.811 0 0 1-.158-2.913 37.68 37.68 0 0 1 .067-3.025c.015-.268.047-.538.078-.809.455 1.006 1.343 1.825 2.299 2.42 1.784 1.111 3.843 1.893 5.828 2.567a50.456 50.456 0 0 0 13.127 2.565c9.552.572 19.036-1.115 28.427-2.62 4.943-.792 9.892-1.48 14.881-1.913 4.949-.43 9.909-.688 14.863-1.056 9.022-.67 18.111-1.79 26.656-4.888 3.974-1.441 7.83-3.289 11.303-5.703 1.613-1.121 3.26-2.303 4.424-3.905.199-.273.381-.563.538-.863.148.556.321 1.108.436 1.666.239 1.169.393 2.348.42 3.54.026 1.157.007 2.311-.115 3.463-.054.503-.179 1.038-.275 1.574z" fill="#FFFFFF" data-color="5"></path>
        <path d="M40.782 124.009c-.082.561.053 1.118.364 1.625.95 1.545 2.849 2.368 4.45 3.063a29.288 29.288 0 0 0 5.415 1.74c3.855.844 7.803 1.03 11.737.85 8.794-.403 17.483-2.188 26.174-3.461 9.054-1.325 18.152-1.711 27.273-2.297 8.425-.541 16.909-1.434 25.001-3.942 3.795-1.176 7.517-2.686 10.965-4.66 3.007-1.722 6.233-3.754 8.218-6.665a.334.334 0 0 0 .091-.064c.088.579-.006 1.175-.239 1.741-.752 1.831-2.422 3.115-3.982 4.239a46.156 46.156 0 0 1-5.09 3.176c-3.601 1.941-7.443 3.405-11.378 4.523-8.527 2.423-17.399 3.168-26.21 3.789-4.662.329-9.331.598-13.982 1.07-4.606.467-9.18 1.176-13.751 1.903-8.917 1.42-17.926 2.833-26.985 2.194-4.294-.303-8.493-.936-12.559-2.39-1.918-.686-3.977-1.461-5.641-2.657-1.467-1.054-2.529-3.156-1.332-4.817.035-.049.023-.107-.011-.151.2-.322.423-.629.673-.915.458-.524.99-.969 1.571-1.344-.096.23-.186.461-.269.696-.297.849-.595 1.834-.503 2.754z" fill="#FFF171" data-color="2"></path>
        <path d="M48.025 114.949c.328-.235.662-.46.999-.68 1.882 3.647 6.023 5.35 9.911 5.952a29.03 29.03 0 0 0 6.907.217 36.344 36.344 0 0 0 3.492-.492c.648-.12 1.351-.223 2.022-.394-1.359 3.048-1.265 6.707-.6 9.932-2.917.36-5.843.629-8.778.73-3.82.132-7.705-.022-11.437-.896-1.874-.439-3.711-1.049-5.449-1.875-1.135-.539-3.218-1.511-3.432-2.952a.04.04 0 0 1 .005-.009c.236-.572.309-1.186.46-1.786.154-.61.359-1.209.62-1.783a13.359 13.359 0 0 1 1.816-2.904c.255-.287.517-.57.796-.839a23.428 23.428 0 0 1 2.668-2.221z" fill="#FF3998" data-color="4"></path>
    </g>
</svg>